<svg width="512" height="512" viewBox="0 0 512 512" fill="none" xmlns="http://www.w3.org/2000/svg">
<g clip-path="url(#clip0_330_5797)">
<path d="M256 0C114.837 0 0 114.837 0 256C0 397.163 114.837 512 256 512C397.163 512 512 397.163 512 256C512 114.837 397.163 0 256 0ZM335.083 271.083L228.416 377.749C226.437 379.733 224.086 381.306 221.498 382.379C218.91 383.452 216.135 384.003 213.333 384C210.531 384.002 207.756 383.452 205.168 382.379C202.58 381.306 200.229 379.733 198.25 377.749C189.909 369.408 189.909 355.925 198.25 347.584L289.835 256L198.251 164.416C189.91 156.075 189.91 142.592 198.251 134.251C206.592 125.91 220.075 125.91 228.416 134.251L335.083 240.918C343.424 249.259 343.424 262.741 335.083 271.083Z" fill="white"/>
</g>
<defs>
<clipPath id="clip0_330_5797">
<rect width="512" height="512" fill="white"/>
</clipPath>
</defs>
</svg>
