<svg width="48" height="49" viewBox="0 0 48 49" fill="none" xmlns="http://www.w3.org/2000/svg">
<path d="M24 49C37.234 49 48 38.0637 48 24.6204C48 11.177 37.234 0.240772 24 0.240772C10.766 0.240772 0 11.177 0 24.6204C0 38.0637 10.766 49 24 49ZM16.586 23.184L26.586 13.0259C26.7715 12.837 26.9919 12.6871 27.2346 12.585C27.4772 12.4828 27.7374 12.4303 28 12.4306C28.2627 12.4303 28.5228 12.4828 28.7655 12.585C29.0082 12.6871 29.2286 12.837 29.4141 13.0259C30.196 13.8202 30.196 15.1042 29.4141 15.8986L20.828 24.6204L29.414 33.3422C30.1959 34.1365 30.1959 35.4206 29.414 36.2149C28.632 37.0092 27.368 37.0092 26.586 36.2149L16.586 26.0567C15.804 25.2624 15.804 23.9784 16.586 23.184Z" fill="#FF7189"/>
</svg>
