<svg width="48" height="49" viewBox="0 0 48 49" fill="none" xmlns="http://www.w3.org/2000/svg">
<path d="M24 0C10.766 0 0 10.9363 0 24.3796C0 37.823 10.766 48.7592 24 48.7592C37.234 48.7592 48 37.823 48 24.3796C48 10.9363 37.234 0 24 0ZM31.414 25.816L21.414 35.9741C21.2285 36.163 21.0081 36.3129 20.7654 36.415C20.5228 36.5172 20.2626 36.5697 20 36.5694C19.7373 36.5697 19.4772 36.5172 19.2345 36.415C18.9918 36.3129 18.7714 36.163 18.5859 35.9741C17.804 35.1798 17.804 33.8958 18.5859 33.1014L27.172 24.3796L18.586 15.6578C17.8041 14.8635 17.8041 13.5794 18.586 12.7851C19.368 11.9908 20.632 11.9908 21.414 12.7851L31.414 22.9433C32.196 23.7376 32.196 25.0216 31.414 25.816Z" fill="#FF7189"/>
</svg>
