<svg width="512" height="512" viewBox="0 0 512 512" fill="none" xmlns="http://www.w3.org/2000/svg">
<path d="M182.062 106.029C177.633 105.946 173.288 107.243 169.628 109.739C165.968 112.235 163.174 115.806 161.633 119.96C160.093 124.113 159.881 128.643 161.027 132.922C162.174 137.201 164.622 141.017 168.033 143.844L298.573 255.597L167.952 367.35C165.566 369.09 163.566 371.305 162.079 373.856C160.592 376.408 159.65 379.24 159.312 382.173C158.974 385.107 159.248 388.079 160.117 390.901C160.986 393.724 162.43 396.335 164.359 398.572C166.287 400.808 168.659 402.62 171.323 403.894C173.987 405.167 176.887 405.875 179.838 405.972C182.79 406.069 185.729 405.553 188.471 404.456C191.213 403.36 193.698 401.707 195.769 399.602L345.096 271.965C347.444 269.959 349.33 267.468 350.623 264.663C351.916 261.858 352.586 258.806 352.586 255.718C352.586 252.63 351.916 249.578 350.623 246.773C349.33 243.968 347.444 241.477 345.096 239.471L195.769 111.431C191.985 108.062 187.127 106.147 182.062 106.029Z" fill="black"/>
</svg>
