<svg width="512" height="512" viewBox="0 0 512 512" fill="none" xmlns="http://www.w3.org/2000/svg">
<path d="M405.972 182.062C406.054 177.633 404.757 173.288 402.262 169.628C399.766 165.968 396.194 163.174 392.041 161.634C387.888 160.093 383.358 159.881 379.079 161.027C374.8 162.174 370.983 164.622 368.156 168.033L256.403 298.573L144.65 167.952C142.911 165.566 140.695 163.566 138.144 162.079C135.593 160.592 132.761 159.65 129.827 159.312C126.894 158.974 123.922 159.249 121.099 160.117C118.277 160.986 115.665 162.43 113.429 164.359C111.193 166.288 109.381 168.659 108.107 171.323C106.833 173.987 106.126 176.887 106.029 179.838C105.932 182.79 106.448 185.729 107.544 188.471C108.641 191.213 110.293 193.698 112.398 195.769L240.036 345.096C242.041 347.444 244.533 349.33 247.337 350.623C250.142 351.916 253.194 352.586 256.282 352.586C259.371 352.586 262.423 351.916 265.228 350.623C268.032 349.33 270.523 347.444 272.529 345.096L400.57 195.769C403.939 191.985 405.853 187.127 405.972 182.062Z" fill="#5C5A60"/>
</svg>
