<svg width="24" height="24" viewBox="0 0 24 24" fill="none" xmlns="http://www.w3.org/2000/svg">
<path d="M8.53417 4.9699C8.32655 4.96605 8.12287 5.02682 7.95131 5.14382C7.77975 5.26081 7.6488 5.42823 7.57657 5.62292C7.50434 5.8176 7.49441 6.02993 7.54815 6.23051C7.60189 6.43108 7.71664 6.61 7.87653 6.7425L13.9956 11.9809L7.87275 17.2193C7.76089 17.3009 7.66715 17.4047 7.59745 17.5243C7.52774 17.6439 7.48358 17.7767 7.46775 17.9142C7.45192 18.0517 7.46477 18.191 7.50549 18.3233C7.54621 18.4556 7.61391 18.578 7.70432 18.6829C7.79472 18.7877 7.90588 18.8726 8.03077 18.9323C8.15566 18.992 8.29156 19.0252 8.42992 19.0297C8.56827 19.0343 8.70605 19.0101 8.83459 18.9587C8.96312 18.9073 9.0796 18.8298 9.17669 18.7312L16.1764 12.7482C16.2865 12.6541 16.3748 12.5374 16.4355 12.4059C16.4961 12.2744 16.5274 12.1314 16.5274 11.9866C16.5274 11.8418 16.4961 11.6988 16.4355 11.5673C16.3748 11.4358 16.2865 11.319 16.1764 11.225L9.17669 5.22313C8.99931 5.06521 8.77159 4.97546 8.53417 4.9699Z" fill="#FF4866"/>
</svg>
