<svg width="512" height="512" viewBox="0 0 512 512" fill="none" xmlns="http://www.w3.org/2000/svg">
<g clip-path="url(#clip0_371_5849)">
<path d="M400.835 413.07C477.699 332.861 474.989 205.529 394.78 128.665C314.57 51.8012 187.238 54.5131 110.374 134.721C35.8152 212.526 35.8152 335.266 110.374 413.07L58.1113 482.741C52.0522 490.821 53.6894 502.283 61.7683 508.342C69.8471 514.401 81.3097 512.764 87.3689 504.685L138.022 437.135C208.097 488.192 303.112 488.192 373.185 437.135L423.839 504.685C429.898 512.765 441.361 514.402 449.439 508.342C457.519 502.283 459.157 490.82 453.096 482.741L400.835 413.07ZM273.892 274.277C273.892 278.233 272.609 282.083 270.235 285.248L215.376 358.394C209.317 366.474 197.854 368.112 189.775 362.051C181.697 355.991 180.058 344.53 186.119 336.451L237.321 268.187V164.558C237.321 154.459 245.508 146.271 255.608 146.271C265.707 146.271 273.894 154.459 273.894 164.558V274.277H273.892ZM155.67 26.7696C119.516 -8.48388 61.63 -7.75421 26.3755 28.3993C-8.2479 63.9067 -8.25219 120.542 26.367 156.055C33.5083 163.194 45.0834 163.194 52.2236 156.055L155.67 52.6273C162.809 45.486 162.809 33.9109 155.67 26.7696ZM484.825 26.7696C449.12 -8.92425 391.244 -8.92425 355.54 26.7696C348.401 33.9109 348.401 45.486 355.54 52.6262L458.968 156.054C466.109 163.193 477.684 163.193 484.825 156.054C520.518 120.351 520.518 62.4741 484.825 26.7696Z" fill="#BBBBBB"/>
</g>
<defs>
<clipPath id="clip0_371_5849">
<rect width="512" height="512" fill="white"/>
</clipPath>
</defs>
</svg>
