<svg width="28" height="28" viewBox="0 0 28 28" fill="none" xmlns="http://www.w3.org/2000/svg">
<path fill-rule="evenodd" clip-rule="evenodd" d="M8.60836 13.9962L10.9446 12.8538C11.9864 12.3436 13.2546 12.7794 13.7643 13.8212C14.2745 14.8646 13.8387 16.1312 12.7969 16.6409L8.60836 18.6889V21.0175C8.60836 21.7257 9.18805 22.3043 9.89516 22.3043H24.7133C25.4204 22.3043 25.9984 21.7263 25.9984 21.0175V9.0016H8.60836V13.9962ZM19.384 20.2913H11.918C11.6687 20.2913 11.4669 20.0884 11.4669 19.8385C11.4669 19.5891 11.6687 19.3873 11.918 19.3873H19.384C19.6334 19.3873 19.8368 19.5891 19.8368 19.8385C19.8363 20.0884 19.6334 20.2913 19.384 20.2913ZM22.6888 17.1987H14.4884C14.239 17.1987 14.0355 16.9958 14.0355 16.7459C14.0355 16.4965 14.2384 16.2947 14.4884 16.2947H22.6888C22.9381 16.2947 23.1416 16.4965 23.1416 16.7459C23.1416 16.9958 22.9387 17.1987 22.6888 17.1987ZM14.2264 13.6533C14.2264 13.405 14.4293 13.2021 14.6792 13.2021H19.384C19.6334 13.2021 19.8368 13.405 19.8368 13.6533C19.8368 13.9027 19.6339 14.1061 19.384 14.1061H14.6792C14.4293 14.1061 14.2264 13.9032 14.2264 13.6533ZM11.918 10.1096H22.6888C22.9381 10.1096 23.1416 10.3125 23.1416 10.5624C23.1416 10.8107 22.9387 11.0136 22.6888 11.0136H11.918C11.6687 11.0136 11.4669 10.8107 11.4669 10.5624C11.4669 10.313 11.6687 10.1096 11.918 10.1096ZM1.70844 13.049C1.70844 11.9668 2.58891 11.0863 3.67117 11.0863C4.7518 11.0863 5.63391 11.9668 5.63391 13.049C5.63391 14.1296 4.7518 15.0118 3.67117 15.0118C2.58891 15.0118 1.70844 14.1296 1.70844 13.049ZM12.4004 15.8299L7.4818 18.2356C6.67242 18.631 6.19227 19.4015 6.19227 20.3022V21.6262C6.19227 21.9997 5.8882 22.3038 5.51469 22.3038H0.677578C0.304063 22.3038 0 21.9997 0 21.6262V19.2593C0 17.5837 1.37047 16.2132 3.04445 16.2132H5.59891C5.96641 16.2132 6.28086 16.1405 6.60953 15.9792L11.3405 13.6664C11.9361 13.375 12.6613 13.6232 12.9511 14.2182C13.2437 14.8132 12.9954 15.5384 12.4004 15.8299ZM28 6.89777C28 7.5584 27.4608 8.09762 26.8002 8.09762H7.80828C7.14766 8.09762 6.6068 7.5584 6.6068 6.89777C6.6068 6.23715 7.14766 5.69629 7.80828 5.69629H26.7996C27.4602 5.69629 28 6.23769 28 6.89777Z" fill="#45444A"/>
</svg>
