<svg width="512" height="512" viewBox="0 0 512 512" fill="none" xmlns="http://www.w3.org/2000/svg">
<path d="M160.001 53.3333C160.001 41.5513 150.449 32 138.667 32C126.885 32 117.334 41.5513 117.334 53.3333V74.6667C117.334 86.4487 126.885 96 138.667 96C150.449 96 160.001 86.4487 160.001 74.6667V53.3333Z" fill="#BBBBBB"/>
<path d="M394.667 53.3333C394.667 41.5513 385.115 32 373.333 32C361.551 32 352 41.5513 352 53.3333V74.6667C352 86.4487 361.551 96 373.333 96C385.115 96 394.667 86.4487 394.667 74.6667V53.3333Z" fill="#BBBBBB"/>
<path d="M42.667 192V437.333C42.667 448.649 47.1622 459.502 55.1638 467.503C63.1653 475.505 74.0178 480 85.3337 480H426.667C437.983 480 448.835 475.505 456.837 467.503C464.838 459.502 469.334 448.649 469.334 437.333V192H42.667ZM170.667 405.333C170.667 410.991 168.419 416.418 164.419 420.418C160.418 424.419 154.992 426.667 149.334 426.667H128C122.342 426.667 116.916 424.419 112.915 420.418C108.915 416.418 106.667 410.991 106.667 405.333V384C106.667 378.342 108.915 372.916 112.915 368.915C116.916 364.914 122.342 362.667 128 362.667H149.334C154.992 362.667 160.418 364.914 164.419 368.915C168.419 372.916 170.667 378.342 170.667 384V405.333ZM170.667 288C170.667 293.658 168.419 299.084 164.419 303.085C160.418 307.086 154.992 309.333 149.334 309.333H128C122.342 309.333 116.916 307.086 112.915 303.085C108.915 299.084 106.667 293.658 106.667 288V266.667C106.667 261.009 108.915 255.583 112.915 251.582C116.916 247.581 122.342 245.333 128 245.333H149.334C154.992 245.333 160.418 247.581 164.419 251.582C168.419 255.583 170.667 261.009 170.667 266.667V288ZM288 405.333C288 410.991 285.753 416.418 281.752 420.418C277.751 424.419 272.325 426.667 266.667 426.667H245.334C239.676 426.667 234.249 424.419 230.249 420.418C226.248 416.418 224 410.991 224 405.333V384C224 378.342 226.248 372.916 230.249 368.915C234.249 364.914 239.676 362.667 245.334 362.667H266.667C272.325 362.667 277.751 364.914 281.752 368.915C285.753 372.916 288 378.342 288 384V405.333ZM288 288C288 293.658 285.753 299.084 281.752 303.085C277.751 307.086 272.325 309.333 266.667 309.333H245.334C239.676 309.333 234.249 307.086 230.249 303.085C226.248 299.084 224 293.658 224 288V266.667C224 261.009 226.248 255.583 230.249 251.582C234.249 247.581 239.676 245.333 245.334 245.333H266.667C272.325 245.333 277.751 247.581 281.752 251.582C285.753 255.583 288 261.009 288 266.667V288ZM405.334 405.333C405.334 410.991 403.086 416.418 399.085 420.418C395.085 424.419 389.658 426.667 384 426.667H362.667C357.009 426.667 351.583 424.419 347.582 420.418C343.581 416.418 341.334 410.991 341.334 405.333V384C341.334 378.342 343.581 372.916 347.582 368.915C351.583 364.914 357.009 362.667 362.667 362.667H384C389.658 362.667 395.085 364.914 399.085 368.915C403.086 372.916 405.334 378.342 405.334 384V405.333ZM405.334 288C405.334 293.658 403.086 299.084 399.085 303.085C395.085 307.086 389.658 309.333 384 309.333H362.667C357.009 309.333 351.583 307.086 347.582 303.085C343.581 299.084 341.334 293.658 341.334 288V266.667C341.334 261.009 343.581 255.583 347.582 251.582C351.583 247.581 357.009 245.333 362.667 245.333H384C389.658 245.333 395.085 247.581 399.085 251.582C403.086 255.583 405.334 261.009 405.334 266.667V288ZM469.334 170.667V106.667C469.334 95.3508 464.838 84.4983 456.837 76.4968C448.835 68.4952 437.983 64 426.667 64H416V74.6667C416 98.1973 396.864 117.333 373.334 117.333C349.803 117.333 330.667 98.1973 330.667 74.6667V64H181.334V74.6667C181.334 98.1973 162.198 117.333 138.667 117.333C115.136 117.333 96.0003 98.1973 96.0003 74.6667V64H85.3337C74.0178 64 63.1653 68.4952 55.1638 76.4968C47.1622 84.4983 42.667 95.3508 42.667 106.667V170.667H469.334Z" fill="#BBBBBB"/>
</svg>
