<svg width="512" height="512" viewBox="0 0 512 512" fill="none" xmlns="http://www.w3.org/2000/svg">
<path d="M103.147 480.853C106.222 483.98 109.892 486.459 113.941 488.144C117.99 489.829 122.335 490.687 126.72 490.667C132.14 490.664 137.478 489.342 142.273 486.815C147.068 484.287 151.175 480.63 154.24 476.16C188.19 426.449 225.767 379.317 266.667 335.147L176.853 245.333C132.662 286.207 85.5309 323.784 35.84 357.76C31.3763 360.832 27.7244 364.94 25.1977 369.734C22.671 374.527 21.345 379.862 21.3334 385.28C21.313 389.665 22.1707 394.011 23.8561 398.059C25.5415 402.108 28.0204 405.778 31.1467 408.853L103.147 480.853ZM320 281.493L230.507 192C218.027 205.12 205.333 217.813 192.213 230.293L281.493 320C293.973 306.667 306.667 293.973 320 281.493ZM408.853 31.1468C405.785 28.0107 402.116 25.5254 398.066 23.8393C394.016 22.1532 389.667 21.3009 385.28 21.3334C379.862 21.345 374.527 22.6711 369.734 25.1978C364.94 27.7245 360.832 31.3763 357.76 35.8401C323.784 85.531 286.207 132.662 245.333 176.853L335.147 266.667C379.317 225.768 426.449 188.19 476.16 154.24C480.209 151.476 483.596 147.852 486.082 143.627C488.567 139.402 490.088 134.68 490.537 129.798C490.985 124.917 490.349 119.997 488.676 115.39C487.002 110.782 484.331 106.602 480.853 103.147L408.853 31.1468ZM249.173 387.2L245.333 425.6C245.039 427.685 245.368 429.81 246.279 431.708C247.19 433.607 248.642 435.193 250.453 436.267C252.184 437.081 254.091 437.448 256 437.333C258.091 437.317 260.131 436.687 261.867 435.52L288 418.133L314.133 435.52C315.864 436.645 317.883 437.243 319.947 437.243C322.01 437.243 324.03 436.645 325.76 435.52C327.512 434.403 328.9 432.798 329.752 430.903C330.605 429.008 330.886 426.906 330.56 424.853L312.747 318.187C290.702 340.231 269.511 363.236 249.173 387.2ZM435.84 250.453C434.766 248.643 433.18 247.19 431.282 246.279C429.384 245.368 427.258 245.039 425.173 245.333L386.773 249.173C362.88 269.582 339.804 290.738 317.547 312.64L424.213 330.56C426.266 330.886 428.368 330.605 430.263 329.753C432.158 328.9 433.763 327.512 434.88 325.76C436.005 324.03 436.603 322.01 436.603 319.947C436.603 317.883 436.005 315.864 434.88 314.133L418.133 288L435.52 261.867C436.649 260.19 437.279 258.227 437.336 256.207C437.392 254.186 436.874 252.191 435.84 250.453Z" fill="#BBBBBB"/>
</svg>
