<svg width="32" height="32" viewBox="0 0 32 32" fill="none" xmlns="http://www.w3.org/2000/svg">
<rect x="32" width="32" height="32" rx="8" transform="rotate(90 32 0)" fill="#BF213B"/>
<path d="M8.42988 11.8594L9.46773 24.3881C9.54211 25.2916 10.3117 26 11.2187 26H20.7814C21.6883 26 22.4579 25.2916 22.5323 24.3881L23.5701 11.8594H8.42988ZM13.0698 23.6562C12.763 23.6562 12.505 23.4177 12.4855 23.1069L11.8996 13.6538C11.8796 13.3305 12.125 13.0524 12.4478 13.0324C12.7825 13.0089 13.0486 13.2573 13.0692 13.5805L13.6551 23.0337C13.6759 23.3684 13.411 23.6562 13.0698 23.6562ZM16.5859 23.0703C16.5859 23.3942 16.3239 23.6562 16 23.6562C15.6761 23.6562 15.4141 23.3942 15.4141 23.0703V13.6172C15.4141 13.2933 15.6761 13.0312 16 13.0312C16.3239 13.0312 16.5859 13.2933 16.5859 13.6172V23.0703ZM20.1004 13.6538L19.5145 23.107C19.4952 23.4145 19.2388 23.6709 18.893 23.6551C18.5703 23.6351 18.3248 23.357 18.3449 23.0337L18.9308 13.5806C18.9509 13.2573 19.2341 13.0221 19.5522 13.0324C19.875 13.0525 20.1204 13.3305 20.1004 13.6538ZM23.6172 8.34375H20.1016V7.75781C20.1016 6.78852 19.313 6 18.3438 6H13.6562C12.687 6 11.8984 6.78852 11.8984 7.75781V8.34375H8.38281C7.73559 8.34375 7.21094 8.8684 7.21094 9.51562C7.21094 10.1628 7.73559 10.6875 8.38281 10.6875H23.6172C24.2644 10.6875 24.7891 10.1628 24.7891 9.51562C24.7891 8.8684 24.2644 8.34375 23.6172 8.34375ZM18.9297 8.34375H13.0703V7.75781C13.0703 7.43453 13.333 7.17188 13.6562 7.17188H18.3438C18.667 7.17188 18.9297 7.43453 18.9297 7.75781V8.34375Z" fill="#FCFCFC"/>
</svg>
