<svg width="512" height="512" viewBox="0 0 512 512" fill="none" xmlns="http://www.w3.org/2000/svg">
<path d="M61.4859 331.453H42.2961L24.3198 421.018C22.0312 432.42 34.867 439.828 51.8859 439.828C68.9048 439.828 81.7355 432.43 79.452 421.018L61.4859 331.453ZM65.9966 308.122C65.9966 311.869 64.5078 315.464 61.8577 318.114C59.2076 320.764 55.6132 322.253 51.8654 322.253C48.1176 322.253 44.5233 320.764 41.8731 318.114C39.223 315.464 37.7342 311.869 37.7342 308.122C37.7342 300.288 44.083 293.939 51.8654 293.939C59.699 293.939 65.9966 300.288 65.9966 308.122ZM494.756 155.315L262.676 73.4361C257.889 71.7465 254.126 71.7465 249.339 73.4361L17.2388 155.315C14.2948 156.349 12.7998 158.469 12.7998 161.592V183.767C12.7998 186.89 14.2948 189.015 17.2388 190.054L256 274.278L494.756 190.054C497.705 189.01 499.2 186.895 499.2 183.772V161.587C499.2 158.464 497.705 156.349 494.756 155.315Z" fill="#BBBBBB"/>
<path d="M255.995 294.282L249.723 292.065L107.213 241.787V292.495C107.213 371.379 157.389 406.927 255.995 406.927C354.596 406.927 404.767 371.379 404.767 292.495V241.787L262.267 292.065L255.995 294.282ZM61.3174 225.597L42.4502 218.941V286.239H61.3174V225.597Z" fill="#BBBBBB"/>
</svg>
