<svg width="512" height="512" viewBox="0 0 512 512" fill="none" xmlns="http://www.w3.org/2000/svg">
<path d="M331.756 277.251L288.875 320.277C271.486 337.727 240.89 338.103 223.125 320.277L180.242 277.251L26.2256 431.767C31.9586 434.418 38.2796 436 44.9996 436H467C473.72 436 480.039 434.42 485.77 431.768L331.756 277.251Z" fill="#BBBBBB"/>
<path d="M467 76H45C38.28 76 31.959 77.582 26.228 80.233L190.805 245.356C190.816 245.367 190.829 245.369 190.84 245.38C190.847 245.387 190.851 245.396 190.853 245.406L244.366 299.096C250.05 304.78 261.952 304.78 267.636 299.096L321.138 245.415C321.138 245.415 321.151 245.391 321.162 245.38C321.162 245.38 321.186 245.367 321.197 245.356L485.77 80.232C480.039 77.58 473.72 76 467 76ZM4.786 101.212C1.82 107.21 0 113.868 0 121V391C0 398.132 1.818 404.79 4.785 410.788L159.068 256.005L4.786 101.212ZM507.214 101.21L352.933 256.005L507.214 410.79C510.18 404.792 512 398.134 512 391V121C512 113.866 510.18 107.208 507.214 101.21Z" fill="#BBBBBB"/>
</svg>
