<svg width="512" height="512" viewBox="0 0 512 512" fill="none" xmlns="http://www.w3.org/2000/svg">
<path d="M419.72 419.72L92.26 92.27L92.19 92.19C90.4172 90.4316 88.3154 89.0397 86.0046 88.0935C83.6938 87.1474 81.2192 86.6657 78.7223 86.6759C76.2253 86.6862 73.7548 87.1881 71.4518 88.1531C69.1488 89.1181 67.0584 90.5272 65.3 92.3C63.5416 94.0729 62.1497 96.1747 61.2035 98.4855C60.2574 100.796 59.7757 103.271 59.7859 105.768C59.8066 110.811 61.8296 115.639 65.41 119.19L94.08 147.86C59.3111 171.673 29.3837 201.875 5.89005 236.86C2.05354 242.524 0.00292969 249.209 0.00292969 256.05C0.00292969 262.891 2.05354 269.576 5.89005 275.24C65.86 364 160.93 416 256 415.35C286.795 415.462 317.384 410.335 346.46 400.19L392.87 446.6C396.446 450.06 401.236 451.98 406.212 451.946C411.188 451.912 415.952 449.928 419.48 446.419C423.009 442.91 425.02 438.157 425.081 433.182C425.143 428.206 423.25 423.405 419.81 419.81L419.72 419.72ZM256 363.74C237.988 363.733 220.265 359.213 204.45 350.591C188.636 341.97 175.234 329.522 165.47 314.386C155.706 299.25 149.891 281.908 148.556 263.946C147.222 245.983 150.41 227.973 157.83 211.56L187.78 241.51C185.368 252.878 185.834 264.669 189.136 275.811C192.439 286.953 198.473 297.093 206.69 305.31C214.907 313.528 225.048 319.562 236.19 322.864C247.332 326.166 259.122 326.632 270.49 324.22L300.44 354.17C286.481 360.499 271.327 363.763 256 363.74ZM506.11 236.81C446.14 148 351.07 96 256 96.65C225.205 96.5385 194.616 101.665 165.54 111.81L211.54 157.81C231.501 148.777 253.741 146.042 275.296 149.969C296.85 153.896 316.696 164.299 332.189 179.791C347.681 195.284 358.084 215.13 362.011 236.685C365.939 258.239 363.203 280.479 354.17 300.44L417.91 364.18C452.685 340.371 482.616 310.168 506.11 275.18C509.944 269.517 511.994 262.834 511.994 255.995C511.994 249.156 509.944 242.473 506.11 236.81Z" fill="#A3A3A4"/>
<path d="M256 186.26C251.13 186.261 246.274 186.77 241.51 187.78L324.22 270.48C326.376 260.319 326.236 249.805 323.809 239.705C321.382 229.605 316.73 220.175 310.191 212.103C303.653 204.032 295.395 197.523 286.019 193.052C276.643 188.58 266.387 186.26 256 186.26Z" fill="#A3A3A4"/>
</svg>
