<svg width="28" height="28" viewBox="0 0 28 28" fill="none" xmlns="http://www.w3.org/2000/svg">
<path d="M20.5172 0C17.8154 0.000241379 15.3236 1.45817 14 3.81379C12.6764 1.45811 10.1846 0.000181034 7.48276 0C3.35034 0 0 3.8331 0 7.96552C0 18.3448 14 25.5862 14 25.5862C14 25.5862 28 18.3448 28 7.96552C28 3.8331 24.6497 0 20.5172 0Z" fill="#45444A"/>
<path d="M1.93103 7.96552C1.93103 4.14207 4.80043 0.581725 8.50229 0.0695185C8.16444 0.0230317 7.82379 -0.000195338 7.48276 1.23729e-06C3.35034 1.23729e-06 0 3.8331 0 7.96552C0 18.3448 14 25.5862 14 25.5862C14 25.5862 14.3621 25.3984 14.9655 25.0436C11.8026 23.1835 1.93103 16.6823 1.93103 7.96552Z" fill="#5C5A60"/>
</svg>
