<svg width="48" height="48" viewBox="0 0 48 48" fill="none" xmlns="http://www.w3.org/2000/svg">
<path d="M35.1724 0C30.5407 0.000413793 26.269 2.49972 24 6.53793C21.731 2.49962 17.4593 0.000310345 12.8276 0C5.74345 0 0 6.57103 0 13.6552C0 31.4483 24 43.8621 24 43.8621C24 43.8621 48 31.4483 48 13.6552C48 6.57103 42.2566 0 35.1724 0Z" fill="#FF6243"/>
<path d="M3.31035 13.6552C3.31035 7.10069 8.22931 0.997244 14.5753 0.119175C13.9962 0.039483 13.4122 -0.000334866 12.8276 2.12106e-06C5.74345 2.12106e-06 0 6.57104 0 13.6552C0 31.4483 24 43.8621 24 43.8621C24 43.8621 24.6207 43.54 25.6552 42.9319C20.233 39.7432 3.31035 28.5982 3.31035 13.6552Z" fill="#FF5023"/>
</svg>
