<svg width="28" height="28" viewBox="0 0 28 28" fill="none" xmlns="http://www.w3.org/2000/svg">
<path d="M13.9997 7.35645L4.01361 15.5889C4.01361 15.6005 4.01069 15.6176 4.00485 15.6409C3.99914 15.664 3.99609 15.6808 3.99609 15.6927V24.029C3.99609 24.3299 4.10614 24.5908 4.32616 24.8104C4.54612 25.0302 4.80659 25.1408 5.10764 25.1408H11.7765V18.4716H16.223V25.1411H22.8917C23.1927 25.1411 23.4535 25.0307 23.6732 24.8104C23.8932 24.591 24.0036 24.33 24.0036 24.029V15.6927C24.0036 15.6465 23.9973 15.6116 23.9861 15.5889L13.9997 7.35645Z" fill="#45444A"/>
<path d="M27.8068 13.7132L24.0036 10.5523V3.4664C24.0036 3.30441 23.9515 3.17119 23.847 3.06692C23.7434 2.96278 23.6102 2.91071 23.4478 2.91071H20.1133C19.9512 2.91071 19.818 2.96278 19.7137 3.06692C19.6096 3.17119 19.5576 3.30447 19.5576 3.4664V6.85299L15.32 3.30994C14.95 3.00889 14.5099 2.8584 14.0004 2.8584C13.4909 2.8584 13.051 3.00889 12.6805 3.30994L0.192987 13.7132C0.0772274 13.8056 0.0137815 13.9301 0.00198048 14.0864C-0.00975975 14.2426 0.0306923 14.3791 0.123458 14.4948L1.20021 15.78C1.29298 15.8841 1.4144 15.9478 1.56495 15.9711C1.70395 15.9828 1.84294 15.9422 1.98194 15.8496L14 5.82831L26.0182 15.8495C26.1111 15.9303 26.2324 15.9706 26.383 15.9706H26.4352C26.5855 15.9478 26.7067 15.8837 26.7999 15.7798L27.8768 14.4947C27.9694 14.3788 28.01 14.2426 27.9979 14.0862C27.986 13.9303 27.9224 13.8058 27.8068 13.7132Z" fill="#45444A"/>
</svg>
