<svg width="512" height="512" viewBox="0 0 512 512" fill="none" xmlns="http://www.w3.org/2000/svg">
<path fill-rule="evenodd" clip-rule="evenodd" d="M303.347 106.943V95.9709C303.347 90.4629 298.855 85.9709 293.347 85.9709H218.652C213.144 85.9709 208.652 90.4629 208.652 95.9709V106.943H303.347ZM261 50.8019H298.762C301.227 50.8019 302.64 48.0009 301.174 46.0189L293.331 35.4109C292.944 34.897 292.734 34.2709 292.734 33.6274C292.734 32.9839 292.944 32.3578 293.331 31.8439L301.174 21.2359C302.64 19.2539 301.227 16.4519 298.762 16.4519H254C252.348 16.4519 251 17.7999 251 19.4519V75.9719H261V50.8029V50.8019ZM160.245 149.847H70.5661C65.0581 149.847 60.5661 154.339 60.5661 159.847V452.776H160.245V149.847ZM351.756 149.847V452.776H451.434V159.847C451.434 154.339 446.942 149.847 441.434 149.847H351.755H351.756ZM387.422 187.601H415.769C418.523 187.601 420.769 189.847 420.769 192.601V220.948C420.769 223.702 418.523 225.948 415.769 225.948H387.422C386.097 225.945 384.827 225.418 383.889 224.481C382.952 223.543 382.425 222.273 382.422 220.948V192.601C382.422 189.847 384.668 187.601 387.422 187.601ZM387.422 273.906H415.769C418.523 273.906 420.769 276.152 420.769 278.906V307.254C420.769 310.008 418.523 312.254 415.769 312.254H387.422C386.097 312.251 384.827 311.724 383.889 310.787C382.952 309.849 382.425 308.579 382.422 307.254V278.906C382.422 276.152 384.668 273.906 387.422 273.906ZM382.422 365.211C382.422 362.457 384.668 360.211 387.422 360.211H415.769C418.523 360.211 420.769 362.457 420.769 365.211V393.559C420.769 396.313 418.523 398.559 415.769 398.559H387.422C386.097 398.556 384.827 398.029 383.889 397.092C382.952 396.154 382.425 394.884 382.422 393.559V365.211ZM170.449 127.147V452.776H197.695V365.212C197.695 362.458 199.941 360.212 202.695 360.212H309.305C312.059 360.212 314.305 362.458 314.305 365.212V452.776H341.552V127.147C341.552 121.639 337.06 117.147 331.552 117.147H180.449C174.941 117.147 170.449 121.639 170.449 127.147ZM197.695 192.601C197.695 189.847 199.941 187.601 202.695 187.601H231.043C233.797 187.601 236.043 189.847 236.043 192.601V220.948C236.043 223.702 233.797 225.948 231.043 225.948H202.695C201.37 225.945 200.1 225.418 199.162 224.481C198.225 223.543 197.698 222.273 197.695 220.948V192.601ZM202.695 273.907H231.043C233.797 273.907 236.043 276.153 236.043 278.907V307.255C236.043 310.009 233.797 312.255 231.043 312.255H202.695C201.37 312.252 200.1 311.725 199.162 310.788C198.225 309.85 197.698 308.58 197.695 307.255V278.907C197.695 276.153 199.941 273.907 202.695 273.907ZM280.957 273.907H309.305C312.059 273.907 314.305 276.153 314.305 278.907V307.255C314.305 310.009 312.059 312.255 309.305 312.255H280.957C279.632 312.252 278.362 311.725 277.424 310.788C276.487 309.85 275.96 308.58 275.957 307.255V278.907C275.957 276.153 278.203 273.907 280.957 273.907ZM275.957 192.601C275.957 189.847 278.203 187.601 280.957 187.601H309.305C312.059 187.601 314.305 189.847 314.305 192.601V220.948C314.305 223.702 312.059 225.948 309.305 225.948H280.957C279.632 225.945 278.362 225.418 277.424 224.481C276.487 223.543 275.96 222.273 275.957 220.948V192.601ZM124.641 273.907C127.395 273.907 129.641 276.153 129.641 278.907V307.255C129.641 310.009 127.395 312.255 124.641 312.255H96.2931C94.9678 312.252 93.6976 311.725 92.7605 310.788C91.8234 309.85 91.2957 308.58 91.2931 307.255V278.907C91.2931 276.153 93.5391 273.907 96.2931 273.907H124.641ZM96.2931 360.212H124.641C127.395 360.212 129.641 362.458 129.641 365.212V393.56C129.641 396.314 127.395 398.56 124.641 398.56H96.2931C94.9678 398.557 93.6976 398.03 92.7605 397.093C91.8234 396.155 91.2957 394.885 91.2931 393.56V365.212C91.2931 362.458 93.5391 360.212 96.2931 360.212ZM129.64 192.601V220.948C129.64 223.702 127.394 225.948 124.64 225.948H96.2921C94.9668 225.945 93.6966 225.418 92.7595 224.481C91.8224 223.543 91.2947 222.273 91.2921 220.948V192.601C91.2921 189.847 93.5381 187.601 96.2921 187.601H124.64C127.394 187.601 129.64 189.847 129.64 192.601ZM19.2041 495.548H492.796C494.448 495.548 495.796 494.2 495.796 492.548V487.366C495.796 485.714 494.448 484.366 492.796 484.366H19.2041C17.5521 484.366 16.2041 485.714 16.2041 487.366V492.548C16.2041 494.2 17.5521 495.548 19.2041 495.548ZM473.615 474.162V465.98C473.615 464.328 472.267 462.98 470.615 462.98H41.3851C39.7331 462.98 38.3851 464.328 38.3851 465.98V474.162H473.615Z" fill="#BBBBBB"/>
</svg>
