<svg width="512" height="512" viewBox="0 0 512 512" fill="none" xmlns="http://www.w3.org/2000/svg">
<g clip-path="url(#clip0_367_5834)">
<path d="M483.328 137.952L481.664 138.688C444.352 155.296 405.6 167.36 365.856 175.296C377.083 228.569 377.061 283.6 365.792 336.864C405.536 344.768 444.48 356.736 481.632 373.28L483.264 374.016C501.536 338.656 512 298.592 512 256C512 213.408 501.536 173.344 483.328 137.952ZM186.112 363.168C200.256 408.192 223.584 450.848 255.968 488.544C288.352 450.848 311.712 408.192 325.824 363.168C279.456 357.024 232.48 357.056 186.112 363.168ZM334.144 180.288C308.416 183.904 282.432 186.368 256 186.368C229.536 186.368 203.552 183.872 177.824 180.288C167.04 230.272 167.04 281.984 177.888 331.968C229.703 324.768 282.265 324.768 334.08 331.968C344.933 281.993 344.955 230.272 334.144 180.288ZM255.968 23.456C223.584 61.152 200.256 103.808 186.112 148.864C232.482 154.976 279.454 154.976 325.824 148.864C311.68 103.84 288.352 61.152 255.968 23.456ZM278.048 0C315.616 43.008 342.368 92.064 357.92 143.872C395.232 136.576 431.776 125.472 466.656 110.08C424.416 48.672 356.256 6.72 278.048 0ZM45.312 110.08C80.224 125.44 116.768 136.576 154.048 143.872C169.6 92.064 196.352 43.008 233.92 0C155.712 6.72 87.584 48.672 45.312 110.08ZM146.144 175.328C106.4 167.36 67.68 155.328 30.4 138.72L28.736 137.984C10.464 173.344 0 213.408 0 256C0 298.592 10.464 338.656 28.736 374.048L30.4 373.312C67.52 356.736 106.464 344.768 146.208 336.896C134.912 283.648 134.912 228.608 146.144 175.328ZM154.048 368.16C116.736 375.424 80.192 386.56 45.312 401.92C87.584 463.328 155.712 505.28 233.92 512C196.352 468.992 169.6 419.936 154.048 368.16ZM357.92 368.128C342.4 419.936 315.616 468.992 278.048 512C356.256 505.28 424.416 463.328 466.656 401.92C431.776 386.528 395.232 375.424 357.92 368.128Z" fill="#BBBBBB"/>
</g>
<defs>
<clipPath id="clip0_367_5834">
<rect width="512" height="512" fill="white"/>
</clipPath>
</defs>
</svg>
