<svg width="512" height="512" viewBox="0 0 512 512" fill="none" xmlns="http://www.w3.org/2000/svg">
<path d="M64 464H104C130.4 464 152 442.4 152 416V273.6C152 247.04 130.4 225.6 104 225.6H64C37.6 225.6 16 247.04 16 273.6V416C16 442.4 37.6 464 64 464ZM276 136.8H236C209.6 136.8 188 158.4 188 184.8V416C188 442.4 209.6 464 236 464H276C302.4 464 324 442.4 324 416V184.8C324 158.4 302.4 136.8 276 136.8ZM448 48H408C381.6 48 360 69.6 360 96V416C360 442.4 381.6 464 408 464H448C474.4 464 496 442.4 496 416V96C496 69.6 474.4 48 448 48Z" fill="#BBBBBB"/>
</svg>
