<svg width="32" height="32" viewBox="0 0 32 32" fill="none" xmlns="http://www.w3.org/2000/svg">
<g clip-path="url(#clip0_263_1516)">
<path d="M16 32C24.8366 32 32 24.8366 32 16C32 7.16344 24.8366 0 16 0C7.16344 0 0 7.16344 0 16C0 24.8366 7.16344 32 16 32Z" fill="#0B69C7"/>
<path d="M12.4211 10.1832C12.4215 10.6155 12.2936 11.0383 12.0537 11.398C11.8137 11.7577 11.4724 12.0381 11.073 12.2038C10.6736 12.3694 10.2341 12.4129 9.80999 12.3286C9.3859 12.2444 8.99633 12.0362 8.69059 11.7305C8.38485 11.4247 8.17668 11.0352 8.09242 10.6111C8.00817 10.187 8.05163 9.74742 8.21728 9.34803C8.38294 8.94864 8.66336 8.60737 9.02305 8.36741C9.38273 8.12745 9.80552 7.99958 10.2379 8C10.8167 8.00056 11.3717 8.23075 11.781 8.64005C12.1903 9.04935 12.4205 9.60432 12.4211 10.1832Z" fill="white"/>
<path d="M11.3874 13.2783H9.08842C8.7896 13.2783 8.54736 13.5206 8.54736 13.8194V23.4594C8.54736 23.7582 8.7896 24.0004 9.08842 24.0004H11.3874C11.6862 24.0004 11.9284 23.7582 11.9284 23.4594V13.8194C11.9284 13.5206 11.6862 13.2783 11.3874 13.2783Z" fill="white"/>
<path d="M23.9473 18.8359V23.5033C23.9473 23.635 23.8949 23.7614 23.8018 23.8546C23.7086 23.9478 23.5822 24.0001 23.4504 24.0001H20.9831C20.8513 24.0001 20.7249 23.9478 20.6318 23.8546C20.5386 23.7614 20.4862 23.635 20.4862 23.5033V18.9812C20.4862 18.3054 20.682 16.0338 18.722 16.0338C17.202 16.0338 16.8925 17.5959 16.8273 18.297V23.5138C16.8246 23.643 16.7716 23.7661 16.6796 23.8569C16.5876 23.9477 16.4639 23.9991 16.3347 24.0001H13.9473C13.882 24.0004 13.8172 23.9877 13.7568 23.9629C13.6964 23.938 13.6415 23.9014 13.5953 23.8552C13.5492 23.809 13.5126 23.7541 13.4877 23.6937C13.4628 23.6333 13.4502 23.5686 13.4504 23.5033V13.777C13.4502 13.7115 13.4628 13.6467 13.4877 13.5862C13.5125 13.5257 13.5491 13.4706 13.5952 13.4243C13.6414 13.3779 13.6962 13.3411 13.7567 13.316C13.8171 13.2909 13.8819 13.278 13.9473 13.278H16.3347C16.4009 13.2769 16.4667 13.289 16.5282 13.3135C16.5897 13.3381 16.6457 13.3747 16.6929 13.4211C16.7401 13.4676 16.7777 13.523 16.8033 13.5841C16.8289 13.6451 16.842 13.7107 16.842 13.777V14.6191C17.4062 13.777 18.2441 13.1201 20.0273 13.1201C23.9704 13.118 23.9473 16.8085 23.9473 18.8359Z" fill="white"/>
</g>
<defs>
<clipPath id="clip0_263_1516">
<rect width="32" height="32" fill="white"/>
</clipPath>
</defs>
</svg>
