<svg width="800" height="800" viewBox="0 0 800 800" fill="none" xmlns="http://www.w3.org/2000/svg">
<path d="M672.11 136.432L502.04 72.3573C471.43 62.2403 440.816 65.6126 417.006 82.4743C406.803 89.219 400 95.9636 393.196 102.708H263.945C212.925 102.708 168.707 146.549 168.707 197.134V230.857C168.707 244.346 178.911 257.835 195.918 257.835C212.925 257.835 223.129 244.346 223.129 230.857V197.134C223.129 173.527 243.537 156.666 263.945 156.666H376.19V645.653H263.945C240.136 645.653 223.129 625.42 223.129 605.183V571.463C223.129 557.973 212.925 544.483 195.918 544.483C178.911 544.483 168.707 554.6 168.707 568.09V601.813C168.707 652.397 209.524 696.237 263.945 696.237H393.196C400 702.983 406.803 713.1 413.606 716.473C430.613 726.59 447.62 733.333 468.026 733.333C478.23 733.333 491.836 729.96 502.04 726.59L672.11 662.513C709.523 649.027 733.333 615.303 733.333 574.833V220.74C733.333 183.644 706.123 146.549 672.11 136.432Z" fill="white"/>
<path d="M212.926 450.057C202.721 460.173 202.721 477.037 212.926 487.153C216.327 490.527 223.13 493.897 229.932 493.897C236.735 493.897 243.538 490.527 246.939 487.153L314.966 419.707C318.368 416.333 318.368 412.963 321.769 412.963C321.769 409.59 325.17 406.217 325.17 402.847C325.17 399.473 325.17 396.1 321.769 392.73C321.769 389.357 318.368 385.983 314.966 385.983L246.939 318.537C236.735 308.42 219.728 308.42 209.524 318.537C199.32 328.654 199.32 345.517 209.524 355.633L233.334 379.24H93.878C80.2723 379.24 66.667 389.357 66.667 406.217C66.667 423.08 76.871 433.197 93.878 433.197H236.735L212.926 450.057Z" fill="white"/>
</svg>
