<svg width="28" height="28" viewBox="0 0 28 28" fill="none" xmlns="http://www.w3.org/2000/svg">
<g clip-path="url(#clip0_237_4883)">
<path d="M17.5 19.25V21.875H9.625V26.25C9.625 26.635 9.37125 26.9762 9.00375 27.09C8.91625 27.1162 8.8375 27.125 8.75 27.125C8.46125 27.125 8.19 26.985 8.02375 26.7312L4.7775 21.875H1.75C1.26875 21.875 0.875 21.4813 0.875 21V5.25C0.875 4.76875 1.26875 4.375 1.75 4.375H3.5V17.5C3.5 18.4625 4.2875 19.25 5.25 19.25H17.5Z" fill="#45444A"/>
<path d="M26.25 0.875H5.25C5.01794 0.875 4.79538 0.967187 4.63128 1.13128C4.46719 1.29538 4.375 1.51794 4.375 1.75V17.5C4.375 17.7321 4.46719 17.9546 4.63128 18.1187C4.79538 18.2828 5.01794 18.375 5.25 18.375H18.375V22.75C18.375 22.9378 18.4353 23.1206 18.5472 23.2715C18.6591 23.4223 18.8166 23.5332 18.9963 23.5876C19.176 23.6421 19.3685 23.6372 19.5453 23.5739C19.7221 23.5105 19.8738 23.3919 19.978 23.2356L23.2181 18.375H26.25C26.4821 18.375 26.7046 18.2828 26.8687 18.1187C27.0328 17.9546 27.125 17.7321 27.125 17.5V1.75C27.125 1.51794 27.0328 1.29538 26.8687 1.13128C26.7046 0.967187 26.4821 0.875 26.25 0.875ZM10.0625 10.9375C9.89008 10.9374 9.71936 10.9034 9.56009 10.8374C9.40082 10.7714 9.25612 10.6746 9.13424 10.5526C8.8881 10.3063 8.74988 9.97234 8.75 9.62412C8.75006 9.45171 8.78407 9.28099 8.85011 9.12172C8.91614 8.96245 9.0129 8.81774 9.13486 8.69587C9.38117 8.44972 9.71516 8.31151 10.0634 8.31162C10.4116 8.31174 10.7455 8.45018 10.9916 8.69649C11.2378 8.94279 11.376 9.27679 11.3759 9.625C11.3758 9.97321 11.2373 10.3071 10.991 10.5533C10.7447 10.7994 10.4107 10.9376 10.0625 10.9375ZM15.75 10.9375C15.5776 10.9374 15.4069 10.9034 15.2476 10.8374C15.0883 10.7714 14.9436 10.6746 14.8217 10.5526C14.6999 10.4307 14.6032 10.2859 14.5373 10.1266C14.4713 9.96728 14.4374 9.79654 14.4375 9.62412C14.4376 9.45171 14.4716 9.28099 14.5376 9.12172C14.6036 8.96245 14.7004 8.81774 14.8224 8.69587C14.9443 8.57399 15.0891 8.47733 15.2484 8.4114C15.4077 8.34547 15.5785 8.31157 15.7509 8.31162C16.0991 8.31174 16.433 8.45018 16.6791 8.69649C16.9253 8.94279 17.0635 9.27679 17.0634 9.625C17.0633 9.97321 16.9248 10.3071 16.6785 10.5533C16.4322 10.7994 16.0982 10.9376 15.75 10.9375ZM21.4375 10.9375C21.0893 10.9374 20.7554 10.7989 20.5092 10.5526C20.2631 10.3063 20.1249 9.97234 20.125 9.62412C20.1251 9.27591 20.2636 8.94201 20.5099 8.69587C20.7562 8.44972 21.0902 8.31151 21.4384 8.31162C21.7866 8.31174 22.1205 8.45018 22.3666 8.69649C22.6128 8.94279 22.751 9.27679 22.7509 9.625C22.7508 9.97321 22.6123 10.3071 22.366 10.5533C22.1197 10.7994 21.7857 10.9376 21.4375 10.9375Z" fill="#45444A"/>
</g>
<defs>
<clipPath id="clip0_237_4883">
<rect width="28" height="28" fill="white"/>
</clipPath>
</defs>
</svg>
