<svg width="512" height="512" viewBox="0 0 512 512" fill="none" xmlns="http://www.w3.org/2000/svg">
<path d="M362.666 42.6667H149.333C121.043 42.6667 93.9122 53.9048 73.9083 73.9087C53.9044 93.9126 42.6664 121.044 42.6664 149.333V426.667C42.6318 435.106 45.1084 443.365 49.7809 450.393C54.4535 457.421 61.111 462.9 68.9064 466.133C74.1278 468.238 79.7035 469.324 85.333 469.333C90.9345 469.358 96.4839 468.257 101.651 466.095C106.819 463.933 111.499 460.754 115.413 456.747C116.914 455.432 118.146 453.838 119.04 452.053L153.813 388.48C157.633 385.618 162.267 384.049 167.04 384H362.666C390.956 384 418.087 372.762 438.091 352.758C458.095 332.754 469.333 305.623 469.333 277.333V149.333C469.333 121.044 458.095 93.9126 438.091 73.9087C418.087 53.9048 390.956 42.6667 362.666 42.6667ZM256 298.667C251.78 298.667 247.656 297.416 244.148 295.071C240.639 292.727 237.905 289.395 236.29 285.497C234.676 281.599 234.253 277.31 235.076 273.171C235.899 269.033 237.931 265.232 240.915 262.248C243.898 259.265 247.7 257.233 251.838 256.41C255.976 255.587 260.265 256.009 264.164 257.624C268.062 259.239 271.394 261.973 273.738 265.481C276.082 268.989 277.333 273.114 277.333 277.333C277.333 282.991 275.085 288.418 271.085 292.418C267.084 296.419 261.658 298.667 256 298.667ZM277.333 213.333C277.333 218.991 275.085 224.418 271.085 228.418C267.084 232.419 261.658 234.667 256 234.667C250.342 234.667 244.916 232.419 240.915 228.418C236.914 224.418 234.666 218.991 234.666 213.333V149.333C234.666 143.675 236.914 138.249 240.915 134.248C244.916 130.248 250.342 128 256 128C261.658 128 267.084 130.248 271.085 134.248C275.085 138.249 277.333 143.675 277.333 149.333V213.333Z" fill="#FF4866"/>
</svg>
