<svg width="512" height="512" viewBox="0 0 512 512" fill="none" xmlns="http://www.w3.org/2000/svg">
<path d="M258.813 122.231C345.084 123.078 399.13 117.71 406.429 213.332H511.632C511.632 65.1988 382.439 45.2318 256.075 45.2318C129.7 45.2318 0.517846 65.1988 0.517846 213.332H104.904C112.98 115.888 173.259 121.395 258.813 122.231ZM52.6908 260.954C78.3142 260.954 99.6355 262.488 104.376 237.283C105.013 233.857 105.382 229.973 105.382 225.482H0C0 262.976 23.5919 260.954 52.6908 260.954ZM407.106 225.482H406.12C406.12 230.003 406.509 233.897 407.236 237.283C412.235 260.526 433.526 259.082 459.06 259.082C488.299 259.082 512 261.004 512 225.482H407.106Z" fill="#BBBBBB"/>
<path d="M355.71 199.948V185.05C355.71 178.388 348.032 177.97 338.552 177.97H323.066C313.595 177.97 305.917 178.388 305.917 185.05V207.845H196.373V185.05C196.373 178.388 188.695 177.97 179.224 177.97H163.729C154.258 177.97 146.58 178.388 146.58 185.05V212.954C121.624 238.886 39.9637 349.277 36.9961 362.641L37.0359 451.82C37.0359 460.056 43.738 466.758 51.9738 466.758H450.317C458.552 466.758 465.254 460.056 465.254 451.82V362.193C462.317 349.217 380.676 238.876 355.71 212.944V199.948ZM190.976 374.641C189.037 374.692 187.109 374.354 185.303 373.648C183.498 372.941 181.852 371.88 180.464 370.527C179.075 369.174 177.971 367.557 177.218 365.771C176.464 363.985 176.076 362.066 176.076 360.127C176.076 358.188 176.464 356.269 177.218 354.483C177.971 352.696 179.075 351.079 180.464 349.726C181.852 348.373 183.498 347.312 185.303 346.606C187.109 345.899 189.037 345.561 190.976 345.612C194.759 345.711 198.355 347.284 200.996 349.995C203.637 352.706 205.115 356.342 205.115 360.127C205.115 363.912 203.637 367.547 200.996 370.258C198.355 372.97 194.759 374.542 190.976 374.641ZM190.976 324.849C189.037 324.899 187.109 324.561 185.303 323.855C183.498 323.148 181.852 322.087 180.464 320.734C179.075 319.382 177.971 317.764 177.218 315.978C176.464 314.192 176.076 312.273 176.076 310.334C176.076 308.395 176.464 306.476 177.218 304.69C177.971 302.904 179.075 301.286 180.464 299.933C181.852 298.581 183.498 297.52 185.303 296.813C187.109 296.106 189.037 295.769 190.976 295.819C194.759 295.918 198.355 297.491 200.996 300.202C203.637 302.914 205.115 306.549 205.115 310.334C205.115 314.119 203.637 317.754 200.996 320.466C198.355 323.177 194.759 324.749 190.976 324.849ZM190.976 275.066C189.037 275.116 187.109 274.779 185.303 274.072C183.498 273.365 181.852 272.304 180.464 270.952C179.075 269.599 177.971 267.981 177.218 266.195C176.464 264.409 176.076 262.49 176.076 260.551C176.076 258.612 176.464 256.693 177.218 254.907C177.971 253.121 179.075 251.503 180.464 250.151C181.852 248.798 183.498 247.737 185.303 247.03C187.109 246.324 189.037 245.986 190.976 246.036C194.759 246.136 198.355 247.708 200.996 250.419C203.637 253.131 205.115 256.766 205.115 260.551C205.115 264.336 203.637 267.971 200.996 270.683C198.355 273.394 194.759 274.967 190.976 275.066ZM250.727 374.641C248.789 374.692 246.86 374.354 245.055 373.648C243.249 372.941 241.604 371.88 240.215 370.527C238.826 369.174 237.723 367.557 236.969 365.771C236.215 363.985 235.827 362.066 235.827 360.127C235.827 358.188 236.215 356.269 236.969 354.483C237.723 352.696 238.826 351.079 240.215 349.726C241.604 348.373 243.249 347.312 245.055 346.606C246.86 345.899 248.789 345.561 250.727 345.612C254.511 345.711 258.106 347.284 260.747 349.995C263.388 352.706 264.866 356.342 264.866 360.127C264.866 363.912 263.388 367.547 260.747 370.258C258.106 372.97 254.511 374.542 250.727 374.641ZM250.727 324.849C248.789 324.899 246.86 324.561 245.055 323.855C243.249 323.148 241.604 322.087 240.215 320.734C238.826 319.382 237.723 317.764 236.969 315.978C236.215 314.192 235.827 312.273 235.827 310.334C235.827 308.395 236.215 306.476 236.969 304.69C237.723 302.904 238.826 301.286 240.215 299.933C241.604 298.581 243.249 297.52 245.055 296.813C246.86 296.106 248.789 295.769 250.727 295.819C254.511 295.918 258.106 297.491 260.747 300.202C263.388 302.914 264.866 306.549 264.866 310.334C264.866 314.119 263.388 317.754 260.747 320.466C258.106 323.177 254.511 324.749 250.727 324.849ZM250.727 275.066C248.789 275.116 246.86 274.779 245.055 274.072C243.249 273.365 241.604 272.304 240.215 270.952C238.826 269.599 237.723 267.981 236.969 266.195C236.215 264.409 235.827 262.49 235.827 260.551C235.827 258.612 236.215 256.693 236.969 254.907C237.723 253.121 238.826 251.503 240.215 250.151C241.604 248.798 243.249 247.737 245.055 247.03C246.86 246.324 248.789 245.986 250.727 246.036C254.511 246.136 258.106 247.708 260.747 250.419C263.388 253.131 264.866 256.766 264.866 260.551C264.866 264.336 263.388 267.971 260.747 270.683C258.106 273.394 254.511 274.967 250.727 275.066ZM310.478 374.641C306.628 374.641 302.934 373.112 300.211 370.389C297.488 367.666 295.959 363.973 295.959 360.122C295.959 356.271 297.488 352.578 300.211 349.855C302.934 347.132 306.628 345.602 310.478 345.602C314.329 345.602 318.022 347.132 320.745 349.855C323.468 352.578 324.998 356.271 324.998 360.122C324.998 363.973 323.468 367.666 320.745 370.389C318.022 373.112 314.329 374.641 310.478 374.641ZM310.478 324.849C306.628 324.849 302.934 323.319 300.211 320.596C297.488 317.873 295.959 314.18 295.959 310.329C295.959 306.478 297.488 302.785 300.211 300.062C302.934 297.339 306.628 295.809 310.478 295.809C314.329 295.809 318.022 297.339 320.745 300.062C323.468 302.785 324.998 306.478 324.998 310.329C324.998 314.18 323.468 317.873 320.745 320.596C318.022 323.319 314.329 324.849 310.478 324.849ZM310.478 275.066C306.628 275.066 302.934 273.536 300.211 270.813C297.488 268.09 295.959 264.397 295.959 260.546C295.959 256.695 297.488 253.002 300.211 250.279C302.934 247.556 306.628 246.026 310.478 246.026C314.329 246.026 318.022 247.556 320.745 250.279C323.468 253.002 324.998 256.695 324.998 260.546C324.998 264.397 323.468 268.09 320.745 270.813C318.022 273.536 314.329 275.066 310.478 275.066Z" fill="#BBBBBB"/>
</svg>
