<svg width="512" height="512" viewBox="0 0 512 512" fill="none" xmlns="http://www.w3.org/2000/svg">
<path d="M407.74 268.154L217.329 458.564C215.11 460.783 212.68 462.897 210.144 464.799C213.314 465.644 216.589 466.067 219.971 466.067H398.969C420.631 466.067 438.277 448.42 438.277 426.759V266.674C429.824 266.146 421.159 265.089 412.178 263.399C410.804 264.984 409.325 266.569 407.74 268.154Z" fill="#BBBBBB"/>
<path d="M488.258 143.467L487.307 142.516C469.661 124.87 443.984 108.598 414.82 96.4459C409.536 94.2269 404.147 92.2192 398.758 90.4229V90.1059C398.441 66.7536 379.633 47.945 356.281 47.628L242.161 45.9374C227.051 45.726 212.469 51.6433 201.796 62.3156L11.4912 252.832C-3.83041 268.154 -3.83041 293.091 11.4912 308.413L138.08 435.001C153.401 450.323 178.338 450.323 193.66 435.001L384.176 244.484C389.671 238.99 393.792 232.544 396.645 225.464C415.771 230.853 434.368 233.706 450.746 233.601C491.322 233.389 504.742 215.638 509.18 205.071C513.512 194.504 516.682 172.42 488.258 143.467ZM252.516 251.564C248.078 253.994 243.535 256.636 238.991 258.961C234.659 261.18 233.179 260.651 231.594 256.002C228.319 246.703 223.035 238.778 215.744 232.227C213.842 230.536 211.835 228.951 209.404 228C200.74 224.619 193.132 230.219 194.188 239.518C194.717 244.167 196.196 248.605 197.992 252.938C201.057 260.44 204.332 267.942 206.551 275.762C213.737 300.699 197.887 325.214 172.844 327.644C163.756 328.489 155.092 326.587 147.167 322.044C143.68 320.036 141.038 320.247 138.397 323.206C135.755 326.059 132.796 328.701 130.049 331.448C127.619 333.878 124.977 333.984 122.547 331.554C119.482 328.701 116.524 325.636 113.565 322.678C111.029 320.036 111.24 317.289 113.776 314.753C115.784 312.745 117.792 310.632 119.799 308.624C124.237 304.08 124.237 303.763 120.645 298.797C115.995 292.457 111.874 285.8 109.338 278.298C107.331 272.486 107.859 271.007 113.142 268.048C117.052 265.829 120.962 263.61 124.977 261.497C129.626 259.066 131 259.595 132.585 264.561C135.227 273.014 139.559 280.517 144.948 287.491C148.435 292.034 152.767 295.416 158.05 297.529C167.983 301.439 177.07 294.465 176.014 283.898C175.697 280.305 174.64 276.818 173.266 273.437C169.885 264.772 165.553 256.425 163.334 247.232C159.635 232.438 161.326 218.913 173.266 208.347C186.792 196.406 201.902 195.667 217.858 203.063C224.409 206.128 224.409 206.233 229.481 201.161C231.172 199.471 232.862 197.78 234.659 196.089C238.568 192.391 239.836 192.391 243.746 196.089L247.233 199.576C255.264 207.607 255.264 207.607 247.233 215.743C241.527 221.449 241.527 221.449 246.282 228C249.98 233.072 252.833 238.461 255.052 244.273C256.215 247.443 255.581 249.873 252.516 251.564ZM478.537 192.391C474.944 200.95 436.587 208.452 378.365 184.149C361.247 177.069 345.397 168.193 332.4 158.683C331.977 159.212 331.449 159.74 331.026 160.268C318.346 172.948 297.636 172.948 284.956 160.268C272.276 147.588 272.276 126.878 284.956 114.198C297.636 101.518 318.346 101.518 331.026 114.198C338.634 121.806 341.593 132.161 340.219 141.988C352.688 150.864 367.693 159 383.648 165.657C389.354 167.982 394.743 170.095 400.026 171.892L399.392 126.032C400.343 126.455 401.189 126.772 402.14 127.195C427.077 137.55 449.478 151.709 463.955 166.186L464.589 166.82C478.325 180.662 479.699 189.538 478.537 192.391Z" fill="#BBBBBB"/>
</svg>
