<svg width="200" height="200" viewBox="0 0 200 200" fill="none" xmlns="http://www.w3.org/2000/svg">
<circle cx="100" cy="100" r="100" fill="#D9D9D9"/>
<path fill-rule="evenodd" clip-rule="evenodd" d="M138.811 144.201H61.3064C55.0381 144.201 50 139.163 50 132.894V83.6853C50 77.4756 55.0381 72.4375 61.3064 72.4375H138.694C144.903 72.4375 149.941 77.4756 149.941 83.6853V132.894C150 139.163 144.962 144.201 138.811 144.201ZM61.3064 75.2495C56.6198 75.2495 52.812 79.0573 52.812 83.6853V132.894C52.812 137.522 56.6198 141.33 61.3064 141.33H138.694C143.322 141.33 147.071 137.522 147.071 132.894V83.6853C147.071 79.0573 143.322 75.308 138.694 75.308H61.3064V75.2495Z" fill="#5C5A60"/>
<path fill-rule="evenodd" clip-rule="evenodd" d="M99.971 132.074C86.9071 132.074 76.2451 121.412 76.2451 108.348C76.2451 95.2255 86.9071 84.5635 99.971 84.5635C113.093 84.5635 123.755 95.2255 123.755 108.348C123.814 121.412 113.093 132.074 99.971 132.074ZM99.971 87.3168C88.4302 87.3168 79.1157 96.7486 79.1157 108.231C79.1157 119.771 88.4302 129.145 99.971 129.145C111.512 129.145 120.885 119.771 120.885 108.231C120.943 96.7486 111.512 87.3168 99.971 87.3168Z" fill="#5C5A60"/>
<path fill-rule="evenodd" clip-rule="evenodd" d="M99.9707 119.244C93.9953 119.244 89.0744 114.324 89.0744 108.348C89.0744 102.314 93.9953 97.3347 99.9707 97.3347C106.005 97.3347 110.984 102.256 110.984 108.348C110.984 114.324 106.005 119.244 99.9707 119.244ZM99.9707 100.205C95.5185 100.205 91.9449 103.837 91.9449 108.348C91.9449 112.8 95.5185 116.374 99.9707 116.374C104.482 116.374 108.114 112.8 108.114 108.348C108.114 103.837 104.482 100.205 99.9707 100.205ZM78.1781 114.089H51.4646C50.6444 114.089 50 113.445 50 112.625C50 111.804 50.6444 111.16 51.4646 111.16H78.1781C78.9982 111.16 79.6426 111.804 79.6426 112.625C79.6426 113.445 78.9397 114.089 78.1781 114.089ZM78.1781 105.302H51.4646C50.6444 105.302 50 104.657 50 103.837C50 103.017 50.6444 102.373 51.4646 102.373H78.1781C78.9982 102.373 79.6426 103.017 79.6426 103.837C79.6426 104.657 78.9397 105.302 78.1781 105.302ZM148.653 114.089H121.88C121.06 114.089 120.416 113.445 120.416 112.625C120.416 111.804 121.06 111.16 121.88 111.16H148.535C149.356 111.16 150 111.804 150 112.625C150 113.445 149.356 114.089 148.653 114.089ZM148.653 105.302H121.88C121.06 105.302 120.416 104.657 120.416 103.837C120.416 103.017 121.06 102.373 121.88 102.373H148.535C149.356 102.373 150 103.017 150 103.837C150 104.657 149.356 105.302 148.653 105.302ZM138.811 91.2421H129.203C127.211 91.2421 125.747 89.7775 125.747 87.8443V83.3335C125.747 81.4003 127.329 79.8771 129.203 79.8771H138.869C140.803 79.8771 142.384 81.4003 142.384 83.3335V87.8443C142.267 89.719 140.744 91.2421 138.811 91.2421ZM129.203 82.6891C128.852 82.6891 128.617 83.0406 128.617 83.3335V87.8443C128.617 88.1372 128.852 88.4301 129.203 88.4301H138.869C139.162 88.4301 139.514 88.1372 139.514 87.8443V83.3335C139.514 83.0406 139.162 82.6891 138.869 82.6891H129.203ZM69.3907 75.2491C69.2736 75.2491 69.0978 75.2491 68.9807 75.132C68.2777 74.8976 67.8676 74.0775 68.1019 73.3745L72.2613 60.6621C73.3158 57.4401 75.0146 55.7998 77.5337 55.7998H107.001C109.402 55.7998 111.219 57.4401 112.273 60.6621L116.432 73.3745C116.667 74.0775 116.257 74.8976 115.495 75.132C114.792 75.3663 113.972 74.9562 113.738 74.2532L109.578 61.5409C108.699 58.6118 107.469 58.6118 107.001 58.6118H77.4751C76.9479 58.6118 75.8348 58.6118 74.8389 61.5409L70.7381 74.2532C70.5624 74.8391 69.9766 75.2491 69.3907 75.2491ZM130.668 75.2491C129.848 75.2491 129.203 74.6047 129.203 73.7846V67.9263H124.048V73.8432C124.048 74.6633 123.404 75.3077 122.583 75.3077C121.763 75.3077 121.119 74.6633 121.119 73.8432V66.4618C121.119 65.6416 121.763 64.9972 122.583 64.9972H130.551C131.371 64.9972 132.015 65.6416 132.015 66.4618V73.8432C132.132 74.6633 131.488 75.2491 130.668 75.2491Z" fill="#5C5A60"/>
</svg>
