<svg width="32" height="32" viewBox="0 0 32 32" fill="none" xmlns="http://www.w3.org/2000/svg">
<rect x="32" width="32" height="32" rx="8" transform="rotate(90 32 0)" fill="#7A9E0D"/>
<g clip-path="url(#clip0_229_4603)">
<path d="M14.333 11.8342V8.29092C14.3337 8.16783 14.2979 8.04728 14.2302 7.94449C14.1625 7.8417 14.0659 7.76125 13.9525 7.7133C13.8391 7.66535 13.7141 7.65204 13.5932 7.67505C13.4722 7.69806 13.3608 7.75635 13.273 7.84258L6.18966 14.7176C6.12937 14.7757 6.08142 14.8453 6.04866 14.9223C6.01591 14.9994 5.99902 15.0822 5.99902 15.1659C5.99902 15.2496 6.01591 15.3325 6.04866 15.4095C6.08142 15.4865 6.12937 15.5562 6.18966 15.6143L13.273 22.4893C13.4538 22.6643 13.7222 22.7134 13.9513 22.6168C14.0644 22.5687 14.1608 22.4886 14.2287 22.3862C14.2965 22.2838 14.3328 22.1637 14.333 22.0409V18.4993H15.5147C19.378 18.4993 22.9397 20.5993 24.8088 23.9759L24.8263 24.0076C24.8929 24.1294 24.9982 24.2255 25.1255 24.2809C25.2529 24.3362 25.395 24.3476 25.5295 24.3132C25.664 24.2788 25.7832 24.2006 25.8683 24.0909C25.9535 23.9813 25.9997 23.8464 25.9997 23.7076C25.9997 17.2292 20.7855 11.9459 14.333 11.8342Z" fill="#FCFCFC"/>
</g>
<defs>
<clipPath id="clip0_229_4603">
<rect width="20" height="20" fill="white" transform="translate(6 6)"/>
</clipPath>
</defs>
</svg>
