<svg width="512" height="512" viewBox="0 0 512 512" fill="none" xmlns="http://www.w3.org/2000/svg">
<g clip-path="url(#clip0_366_5824)">
<path d="M451.248 354.559C532.249 273.556 532.248 141.754 451.248 60.7515C370.246 -20.2511 238.446 -20.2511 157.445 60.7515C88.7248 129.471 78.3173 231.675 126.194 311.485C126.194 311.485 129.633 317.255 124.988 321.896L18.9941 427.89C-2.10311 448.985 -7.12547 478.485 11.5834 497.197L14.8047 500.415C33.5136 519.127 63.0143 514.106 84.1099 493.009L189.881 387.238C194.749 382.37 200.516 385.809 200.516 385.809C280.325 433.684 382.529 423.278 451.248 354.559ZM195.799 316.202C135.947 256.35 135.948 158.964 195.801 99.1111C255.653 39.2601 353.039 39.2585 412.89 99.1111C472.743 158.962 472.743 256.35 412.89 316.202C353.038 376.052 255.653 376.052 195.799 316.202Z" fill="#BBBBBB"/>
<path d="M209.059 195.326C206.273 195.326 203.441 194.778 200.711 193.625C189.807 189.01 184.706 176.429 189.321 165.523C218.327 96.9768 297.69 64.809 366.235 93.815C377.139 98.4299 382.24 111.011 377.625 121.917C373.009 132.823 360.43 137.921 349.521 133.308C302.755 113.518 248.603 135.467 228.815 182.233C225.353 190.412 217.413 195.326 209.059 195.326Z" fill="#BBBBBB"/>
</g>
<defs>
<clipPath id="clip0_366_5824">
<rect width="512" height="512" fill="white"/>
</clipPath>
</defs>
</svg>
