<svg width="24" height="24" viewBox="0 0 24 24" fill="none" xmlns="http://www.w3.org/2000/svg">
<path d="M22.1464 3.80267L16.4757 20.8149C16.3769 21.114 16.1861 21.3743 15.9306 21.5586C15.6751 21.7428 15.368 21.8416 15.0529 21.8409H15.0304C14.7114 21.8371 14.4019 21.7312 14.1474 21.5387C13.8928 21.3463 13.7066 21.0774 13.6159 20.7714L11.4762 13.6367L17.0562 8.05667C17.1969 7.91603 17.276 7.72526 17.2761 7.52631C17.2762 7.32735 17.1972 7.13652 17.0566 6.99579C16.9159 6.85506 16.7252 6.77596 16.5262 6.77589C16.3273 6.77582 16.1364 6.85479 15.9957 6.99542L10.4157 12.5762L3.28094 10.4357C2.97567 10.3441 2.70751 10.1577 2.51532 9.90346C2.32313 9.64922 2.21691 9.34038 2.21206 9.02172C2.20722 8.70305 2.30399 8.39113 2.48836 8.13117C2.67273 7.8712 2.9351 7.67672 3.23744 7.57592L20.2497 1.90517C20.514 1.81703 20.7976 1.80424 21.0688 1.86823C21.3399 1.93222 21.5879 2.07046 21.7849 2.26746C21.9819 2.46447 22.1201 2.71244 22.1841 2.9836C22.2481 3.25475 22.2346 3.53837 22.1464 3.80267ZM6.55619 12.9954C6.41554 12.8548 6.22481 12.7758 6.02594 12.7758C5.82707 12.7758 5.63634 12.8548 5.49569 12.9954L1.74569 16.7454C1.60907 16.8869 1.53348 17.0763 1.53518 17.273C1.53689 17.4696 1.61577 17.6577 1.75483 17.7968C1.89388 17.9358 2.08199 18.0147 2.27864 18.0164C2.47529 18.0181 2.66474 17.9425 2.80619 17.8059L6.55619 14.0559C6.69679 13.9153 6.77578 13.7245 6.77578 13.5257C6.77578 13.3268 6.69679 13.1361 6.55619 12.9954ZM11.0562 17.4954C10.9155 17.3548 10.7248 17.2758 10.5259 17.2758C10.3271 17.2758 10.1363 17.3548 9.99569 17.4954L6.24569 21.2454C6.17406 21.3146 6.11692 21.3974 6.07761 21.4889C6.03831 21.5804 6.01762 21.6788 6.01675 21.7784C6.01589 21.8779 6.03486 21.9767 6.07257 22.0689C6.11028 22.1611 6.16597 22.2448 6.23639 22.3152C6.30681 22.3856 6.39055 22.4413 6.48273 22.479C6.5749 22.5167 6.67366 22.5357 6.77324 22.5349C6.87283 22.534 6.97124 22.5133 7.06274 22.474C7.15425 22.4347 7.23701 22.3775 7.30619 22.3059L11.0562 18.5559C11.1968 18.4153 11.2758 18.2245 11.2758 18.0257C11.2758 17.8268 11.1968 17.6361 11.0562 17.4954ZM7.27694 16.7162C7.1353 16.5766 6.94401 16.4989 6.74514 16.5003C6.54626 16.5017 6.35609 16.5821 6.21644 16.7237L2.49194 20.4992C2.42097 20.5689 2.36459 20.6521 2.32607 20.7438C2.28755 20.8355 2.26767 20.934 2.26758 21.0335C2.2675 21.133 2.28721 21.2315 2.32557 21.3233C2.36393 21.4151 2.42017 21.4984 2.49101 21.5682C2.56186 21.6381 2.6459 21.6931 2.73824 21.7302C2.83057 21.7672 2.92936 21.7856 3.02884 21.7841C3.12832 21.7826 3.22651 21.7613 3.31769 21.7215C3.40887 21.6817 3.49122 21.6241 3.55994 21.5522L7.28444 17.7767C7.42405 17.635 7.50169 17.4437 7.50029 17.2449C7.49888 17.046 7.41854 16.8558 7.27694 16.7162Z" fill="#45444A"/>
</svg>
