<svg width="28" height="28" viewBox="0 0 28 28" fill="none" xmlns="http://www.w3.org/2000/svg">
<g clip-path="url(#clip0_228_4210)">
<path d="M17.4998 15.1665C16.8547 15.1665 16.3332 15.6893 16.3332 16.3331V20.9998C16.3332 21.6426 15.8105 22.1664 15.1664 22.1664H11.6665V4.6666C11.6665 3.67026 11.0318 2.78012 10.0775 2.44877L9.73215 2.33322H15.1664C15.8105 2.33322 16.3332 2.85701 16.3332 3.50002V6.99999C16.3332 7.64382 16.8547 8.16657 17.4998 8.16657C18.145 8.16657 18.6664 7.64382 18.6664 6.99999V3.50002C18.6664 1.57039 17.0961 5.4687e-05 15.1664 5.4687e-05H2.62497C2.58057 5.4687e-05 2.54338 0.0199061 2.50023 0.0257029C2.44402 0.0209998 2.39042 0 2.33338 0C1.04654 5.4687e-05 0 1.04644 0 2.33327V23.3331C0 24.3294 0.634642 25.2195 1.58893 25.5509L8.60992 27.8913C8.84791 27.9647 9.0846 27.9998 9.33326 27.9998C10.6201 27.9998 11.6664 26.9532 11.6664 25.6664V24.4998H15.1664C17.096 24.4998 18.6664 22.9295 18.6664 20.9998V16.3331C18.6664 15.6893 18.1449 15.1665 17.4998 15.1665H17.4998Z" fill="#45444A"/>
<path d="M27.6575 10.8416L22.9907 6.17509C22.8276 6.01182 22.6198 5.9006 22.3934 5.8555C22.1671 5.8104 21.9325 5.83345 21.7193 5.92173C21.2841 6.10269 20.9994 6.52843 20.9994 6.99988V10.4998H16.3328C15.6888 10.4998 15.166 11.0224 15.166 11.6664C15.166 12.3105 15.6888 12.833 16.3328 12.833H20.9994V16.333C20.9994 16.8044 21.2841 17.2302 21.7193 17.4111C21.9325 17.4994 22.1671 17.5225 22.3934 17.4774C22.6197 17.4323 22.8276 17.3211 22.9907 17.1579L27.6575 12.4912C28.1136 12.0351 28.1136 11.2977 27.6575 10.8416Z" fill="#45444A"/>
</g>
<defs>
<clipPath id="clip0_228_4210">
<rect width="28" height="28" fill="white"/>
</clipPath>
</defs>
</svg>
