<svg width="800" height="800" viewBox="0 0 800 800" fill="none" xmlns="http://www.w3.org/2000/svg">
<g clip-path="url(#clip0_351_5816)">
<path d="M499.999 400C573.637 400 633.333 340.305 633.333 266.667C633.333 193.029 573.637 133.333 499.999 133.333C426.361 133.333 366.666 193.029 366.666 266.667C366.666 340.305 426.361 400 499.999 400Z" fill="white"/>
<path d="M500 666.667C500 666.667 766.666 666.667 766.666 600C766.666 520 636.666 433.333 500 433.333C363.333 433.333 233.333 520 233.333 600C233.333 666.667 500 666.667 500 666.667ZM200 333.333V233.333H133.333V333.333H33.333V400H133.333V500H200V400H300V333.333H200Z" fill="white"/>
</g>
<defs>
<clipPath id="clip0_351_5816">
<rect width="800" height="800" fill="white"/>
</clipPath>
</defs>
</svg>
