<svg width="512" height="512" viewBox="0 0 512 512" fill="none" xmlns="http://www.w3.org/2000/svg">
<g clip-path="url(#clip0_125_1909)">
<path d="M498.41 183.125L341.013 159.083L270.464 8.81078C265.194 -2.41056 246.784 -2.41056 241.514 8.81078L170.986 159.083L13.5891 183.125C10.683 183.572 7.95611 184.81 5.70783 186.705C3.45956 188.6 1.77684 191.077 0.844428 193.866C-0.0879832 196.654 -0.234028 199.646 0.422329 202.512C1.07869 205.378 2.51206 208.007 4.56508 210.112L118.912 327.317L91.8824 493.013C91.3998 495.977 91.7607 499.016 92.9238 501.784C94.087 504.552 96.0055 506.937 98.46 508.666C100.914 510.395 103.806 511.398 106.804 511.562C109.802 511.725 112.785 511.042 115.413 509.589L256 431.893L396.586 509.611C399.214 511.063 402.198 511.746 405.196 511.583C408.194 511.42 411.085 510.416 413.54 508.687C415.994 506.958 417.913 504.573 419.076 501.805C420.239 499.037 420.6 495.998 420.117 493.035L393.088 327.339L507.434 210.133C509.493 208.029 510.932 205.398 511.592 202.529C512.252 199.66 512.107 196.664 511.174 193.872C510.241 191.08 508.556 188.599 506.304 186.703C504.052 184.807 501.321 183.569 498.41 183.125Z" fill="#FFE609"/>
</g>
<defs>
<clipPath id="clip0_125_1909">
<rect width="512" height="512" fill="white"/>
</clipPath>
</defs>
</svg>
