<svg width="32" height="33" viewBox="0 0 32 33" fill="none" xmlns="http://www.w3.org/2000/svg">
<g clip-path="url(#clip0_360_2565)">
<path d="M31.7314 17.96C31.7314 22.3302 29.9699 26.288 27.1201 29.1606C24.2472 32.0581 20.2677 33.8506 15.8698 33.8522H15.8318C11.419 33.8423 7.43128 32.0299 4.56165 29.1092C1.73998 26.2399 0 22.3037 0 17.96C0 9.18466 7.1038 2.06934 15.8665 2.06934C24.6293 2.06934 31.7314 9.18466 31.7314 17.96Z" fill="#4921BF"/>
<path d="M20.7392 16.0203C23.3789 16.0203 23.8387 7.49577 22.2244 6.0717C22.5172 1.71845 19.2539 -0.0926473 17.4428 2.0724C15.0263 -1.56633 12.7637 0.181912 13.3509 2.77037C10.4184 1.5084 9.35323 3.53782 10.0677 4.98173C8.1971 5.60032 8.91327 8.54273 9.37969 9.40776C7.89112 17.3501 12.0475 16.5728 12.0475 16.5728L21.4057 14.9899L20.7375 16.0203H20.7392Z" fill="#46134B"/>
<path d="M27.1201 28.3161C24.2472 31.2089 20.2677 32.9985 15.8698 33.0002H15.8318C11.419 32.9902 7.43128 31.1808 4.56165 28.2648C5.37705 25.8368 6.96321 24.4127 8.50802 23.5163C8.67672 23.4171 8.85204 23.3244 9.03067 23.2384C9.249 23.1326 9.47228 23.035 9.69557 22.9457C10.0611 22.7985 10.4299 22.6711 10.7839 22.5586C12.1716 22.1187 13.3525 21.9053 13.3525 21.6142V16.0205H18.3127V21.6142C18.3127 21.9401 19.7616 22.1683 21.3544 22.7224C21.6438 22.8216 21.9399 22.9341 22.231 23.0598C22.4741 23.164 22.7156 23.2781 22.9505 23.4038C23.0778 23.4716 23.2035 23.5428 23.3276 23.6172C24.8277 24.5269 26.3395 25.9476 27.1201 28.3161Z" fill="#FFD7B5"/>
<path d="M18.3128 16.9992V20.1583C17.7504 20.5966 16.9929 21.4617 16.0485 21.5228C14.6724 21.6105 13.814 20.5602 13.3525 20.0905V17.2755L18.1987 16.8223L18.3128 16.9992Z" fill="#FFC6A6"/>
<path d="M10.0545 6.60234C10.0545 6.60234 9.25233 13.0479 10.8898 16.2185C11.7085 17.8047 13.6866 20.1368 15.8318 20.1814C17.9787 20.2261 19.6326 17.9833 20.6614 16.5923C22.7173 13.8103 21.5016 6.60234 21.5016 6.60234C21.5016 6.60234 16.9036 2.95533 10.0545 6.60234Z" fill="#FFD7B5"/>
<path d="M9.87754 11.4814C9.87754 11.4814 8.53783 9.58262 7.56198 11.2498C6.86897 12.4341 8.16568 14.9944 9.81469 13.8929L9.87754 11.483V11.4814Z" fill="#FFD7B5"/>
<path d="M21.8142 11.4648C21.8142 11.4648 23.1539 9.56602 24.1298 11.2332C24.8228 12.4175 23.5261 14.9778 21.8771 13.8763L21.8142 11.4664V11.4648Z" fill="#FFD7B5"/>
<path d="M13.8239 11.1924C13.8239 11.5529 13.5328 11.8457 13.1756 11.8457C12.8183 11.8457 12.5272 11.5529 12.5272 11.1924C12.5272 10.8318 12.8183 10.5391 13.1756 10.5391C13.5328 10.5391 13.8239 10.8318 13.8239 11.1924Z" fill="#46134B"/>
<path d="M19.1399 11.1924C19.1399 11.5529 18.8488 11.8457 18.4915 11.8457C18.1342 11.8457 17.8431 11.5529 17.8431 11.1924C17.8431 10.8318 18.1342 10.5391 18.4915 10.5391C18.8488 10.5391 19.1399 10.8318 19.1399 11.1924Z" fill="#46134B"/>
<path d="M12.3568 12.9224C12.0822 13.3425 11.4769 13.4335 11.0022 13.1242C10.5291 12.8149 10.3671 12.2244 10.6416 11.8043C10.9162 11.3842 11.5215 11.2932 11.9962 11.6025C12.4692 11.9118 12.6313 12.5023 12.3568 12.9224Z" fill="#FF918B"/>
<path d="M19.3151 12.9224C19.5896 13.3425 20.195 13.4335 20.6697 13.1242C21.1444 12.8149 21.3048 12.2244 21.0302 11.8043C20.7557 11.3842 20.1503 11.2932 19.6756 11.6025C19.2026 11.9118 19.0405 12.5023 19.3151 12.9224Z" fill="#FF918B"/>
<path d="M15.6383 13.231C15.3902 13.231 15.1488 13.145 15.0164 12.8803C14.7171 12.2816 15.3456 9.8999 15.372 9.799C15.3836 9.75435 15.4299 9.72954 15.4729 9.74111C15.5176 9.75269 15.5441 9.799 15.5308 9.84201C15.3522 10.5135 14.937 12.356 15.1636 12.8076C15.4117 13.3054 16.1908 12.9316 16.1974 12.9283C16.2387 12.9085 16.2883 12.925 16.3082 12.9664C16.328 13.0077 16.3115 13.0573 16.2701 13.0772C16.113 13.1549 15.8715 13.2326 15.6367 13.2326L15.6383 13.231Z" fill="#FFB38D"/>
<path d="M11.7647 10.4639C11.6886 10.4639 11.6141 10.4391 11.5513 10.3862C11.4124 10.2688 11.3942 10.0604 11.5116 9.91977C11.548 9.87676 12.4246 8.86619 14.153 9.2681C14.3316 9.30945 14.4408 9.48808 14.3994 9.66505C14.3581 9.84368 14.1794 9.9545 14.0025 9.9115C12.6628 9.5989 12.0227 10.3366 12.0161 10.3448C11.9499 10.4226 11.8573 10.4623 11.763 10.4623L11.7647 10.4639Z" fill="#46134B"/>
<path d="M19.846 10.4648C19.7534 10.4648 19.6608 10.4251 19.5946 10.349C19.5648 10.3143 18.9231 9.60804 17.6065 9.91402C17.4296 9.95537 17.2509 9.84456 17.2096 9.66758C17.1682 9.48895 17.2791 9.31198 17.456 9.27063C19.1844 8.86706 20.061 9.87929 20.0974 9.92229C20.2148 10.0612 20.1967 10.2713 20.0577 10.3887C19.9949 10.4416 19.9204 10.4664 19.8444 10.4664L19.846 10.4648Z" fill="#46134B"/>
<path d="M17.5321 13.8867C17.5321 13.8867 17.2063 15.2827 15.8054 15.2827C14.4044 15.2827 14.0786 13.8867 14.0786 13.8867H17.5321Z" fill="#BF213B"/>
<path d="M8.94463 11.485L9.34158 13.4234C9.34158 13.4234 8.76434 13.6467 8.54933 13.2167C8.33431 12.7866 8.62376 12.484 8.62376 12.484C8.62376 12.484 7.86128 12.3996 7.89436 11.7877C7.92578 11.174 8.8305 10.9292 8.94463 11.4866V11.485Z" fill="#FFAC7E"/>
<path d="M22.7884 11.485L22.3915 13.4234C22.3915 13.4234 22.9687 13.6467 23.1837 13.2167C23.3987 12.7866 23.1093 12.484 23.1093 12.484C23.1093 12.484 23.8718 12.3996 23.8387 11.7877C23.8056 11.174 22.9026 10.9292 22.7884 11.4866V11.485Z" fill="#FFAC7E"/>
<path d="M9.50366 8.36219C9.50366 8.36219 8.84869 12.3615 10.0941 14.0651C10.1603 13.0098 10.3389 9.07835 10.3389 9.07835C10.3389 9.07835 11.6505 7.8875 11.5017 6.42704C15.1057 8.39361 20.4099 9.64401 19.8476 6.30796C20.6779 7.79818 21.2435 8.75087 21.2435 8.75087L21.7149 13.8749C22.3699 13.4316 22.9041 11.4849 22.264 9.28676C21.6967 7.34003 22.226 6.12933 22.226 6.12933L20.1734 3.44824L12.5271 4.37116L10.4878 5.29407L9.51358 6.5759L9.50366 8.36384V8.36219Z" fill="#46134B"/>
<path d="M27.1201 28.3163C24.2472 31.2091 20.2677 32.9987 15.8698 33.0004H15.8318C11.419 32.9904 7.43128 31.181 4.56165 28.2651C5.18519 26.406 6.26193 25.1357 7.42632 24.2409C7.78192 23.9664 8.1458 23.7266 8.50802 23.5165C8.67672 23.4173 8.85204 23.3246 9.03067 23.2386C9.249 23.1328 9.47228 23.0352 9.69557 22.9459C10.0611 22.7987 10.4299 22.6713 10.7839 22.5589C11.4422 22.3505 12.0558 22.1917 12.5172 22.0527C13.0267 21.8989 13.3525 21.7666 13.3525 21.6144V21.1943C14.0042 21.6955 15.1768 22.5986 15.2943 22.7011C15.4597 22.8433 15.8053 23.9498 15.8053 23.9498C15.8053 23.9498 16.0203 22.888 16.2899 22.6465C16.4702 22.4844 17.5916 21.7385 18.3127 21.2655V21.6144C18.3127 21.7468 18.5526 21.8625 18.9462 21.9932C19.5168 22.1801 20.41 22.3935 21.3544 22.7226C21.6438 22.8218 21.9399 22.9343 22.231 23.06C22.4741 23.1642 22.7156 23.2783 22.9505 23.404C23.0778 23.4719 23.2035 23.543 23.3276 23.6174C23.4152 23.6703 23.5046 23.7266 23.5922 23.7845C25.0031 24.6974 26.3858 26.0868 27.1201 28.3163Z" fill="#FF4866"/>
<path d="M18.9462 21.9932L15.8318 25.3723L12.5172 22.0527C13.0266 21.8989 13.3525 21.7666 13.3525 21.6144V21.1943C14.0041 21.6955 15.1768 22.5986 15.2942 22.7011C15.4596 22.8433 15.8053 23.9498 15.8053 23.9498C15.8053 23.9498 16.0203 22.888 16.2899 22.6465C16.4702 22.4844 17.5916 21.7385 18.3127 21.2655V21.6144C18.3127 21.7468 18.5525 21.8625 18.9462 21.9932Z" fill="#BF213B"/>
<path d="M27.1201 28.3161C24.2472 31.2088 20.2677 32.9984 15.8698 33.0001H15.8318C11.419 32.9902 7.43128 31.1807 4.56165 28.2648C5.18519 26.4057 6.26193 25.1355 7.42632 24.2407C8.30623 26.5943 10.8633 31.9912 15.8583 31.9912C20.8532 31.9912 22.9455 26.2354 23.5922 23.7842C25.0031 24.6972 26.3858 26.0865 27.1201 28.3161Z" fill="#BF213B"/>
<path d="M17.1864 13.8867C17.0938 14.1001 16.8093 14.3862 15.9641 14.4391C14.9386 14.5037 14.5103 14.0984 14.3597 13.8867H17.1864Z" fill="white"/>
<path d="M14.8658 15.6035L15.7904 15.9145L16.7448 15.6035C16.7448 15.6035 16.7084 16.4818 15.7904 17.1334C14.9485 16.5066 14.8658 15.6035 14.8658 15.6035Z" fill="#46134B"/>
</g>
<defs>
<clipPath id="clip0_360_2565">
<rect width="31.7314" height="33" fill="white"/>
</clipPath>
</defs>
</svg>
