<svg width="32" height="32" viewBox="0 0 32 32" fill="none" xmlns="http://www.w3.org/2000/svg">
<g clip-path="url(#clip0_263_1510)">
<path d="M16 0.799805C7.60517 0.799805 0.800049 7.62316 0.800049 16.0401C1.60069 36.2561 30.4023 36.2504 31.2 16.0398C31.2 7.62316 24.3946 0.799805 16 0.799805ZM16 24.7675C11.1885 24.7675 7.27365 20.8529 7.27365 16.0411C7.51045 10.0692 11.9629 7.3582 15.9997 7.3582H16.0004C20.0375 7.35852 24.4903 10.0696 24.7258 16.0216C24.7264 20.8532 20.8116 24.7675 16 24.7675Z" fill="#FF0000"/>
<path d="M16.0006 8.35254C10.8979 8.35222 8.41534 12.3481 8.26782 16.0607C8.26814 20.3045 11.7366 23.773 16 23.773C20.2633 23.773 23.7318 20.3045 23.7318 16.0412C23.5856 12.3487 21.1033 8.35318 16.0006 8.35254Z" fill="#FF0000"/>
<path d="M13.1377 16.8087V20.1559L20.1143 15.8624L13.1377 11.9268V16.8087Z" fill="#F1F1F1"/>
</g>
<defs>
<clipPath id="clip0_263_1510">
<rect width="32" height="32" fill="white"/>
</clipPath>
</defs>
</svg>
