<svg width="336" height="150" viewBox="0 0 336 150" fill="none" xmlns="http://www.w3.org/2000/svg">
<rect width="336" height="150" fill="#E8E8E8"/>
<path d="M145.625 102.625C143.906 102.625 142.422 102.026 141.172 100.828C139.974 99.5781 139.375 98.0938 139.375 96.375V52.625C139.375 50.9063 139.974 49.4479 141.172 48.25C142.422 47 143.906 46.375 145.625 46.375H189.375C191.094 46.375 192.552 47 193.75 48.25C195 49.4479 195.625 50.9063 195.625 52.625V96.375C195.625 98.0938 195 99.5781 193.75 100.828C192.552 102.026 191.094 102.625 189.375 102.625H145.625ZM145.625 96.375H189.375V52.625H145.625V96.375ZM148.75 90.125H186.25L174.531 74.5L165.156 87L158.125 77.625L148.75 90.125ZM145.625 96.375V52.625V96.375Z" fill="#1D1B20"/>
</svg>
