<svg width="32" height="28" viewBox="0 0 32 28" fill="none" xmlns="http://www.w3.org/2000/svg">
<path fill-rule="evenodd" clip-rule="evenodd" d="M11.25 17.5C9.6875 17.5 8.4375 16.0625 8.125 14.6875C7.8125 14.5 7.625 14.1875 7.625 13.8125C7.625 13.6875 7.6875 13.5 7.75 13.375C7.8125 11 9.5 9.6875 11.25 9.6875C12.125 9.6875 13 10.0625 13.625 10.6875C14.3125 11.3125 14.625 12.25 14.6875 13.375C14.75 13.5 14.8125 13.6875 14.8125 13.8125C14.8125 14.1875 14.625 14.5 14.3125 14.6875C14 16.0625 12.75 17.5 11.25 17.5ZM8.5 13.8125C8.5 13.875 8.5 13.9375 8.625 13.9375C8.75 14 8.875 14.125 8.9375 14.3125C9.0625 15.4375 10.125 16.625 11.25 16.625C12.25 16.625 13.25 15.5 13.5 14.4375C13.5 14.3125 13.5 14.125 13.6875 14.0625C13.75 14 13.75 14 13.8125 14C13.875 13.9375 13.9375 13.875 13.9375 13.8125L13.875 13.75C13.8125 13.6875 13.8125 13.625 13.8125 13.5C13.8125 11.5 12.4375 10.5625 11.25 10.5625C10 10.5625 8.625 11.5 8.625 13.5C8.625 13.625 8.5625 13.6875 8.5 13.75V13.8125ZM16.1875 23.25H6.25C6 23.25 5.8125 23.0625 5.8125 22.8125V20.4375C5.8125 18.875 6.9375 17.625 8.3125 17.625H9.6875C9.8125 17.625 9.9375 17.6875 10.0625 17.8125C10.375 18.25 10.875 18.375 11.25 18.375C11.6875 18.375 12.125 18.1875 12.5 17.75C12.5625 17.6875 12.6875 17.625 12.8125 17.625H14.125C15.5 17.625 16.625 18.875 16.625 20.4375V22.8125C16.625 23.0625 16.4375 23.25 16.1875 23.25ZM6.6875 22.375H15.75V20.4375C15.75 19.375 15 18.5 14.125 18.5H13C12.5 19 11.875 19.25 11.25 19.25C10.5625 19.25 9.9375 19 9.5 18.5H8.3125C7.4375 18.5 6.6875 19.375 6.6875 20.4375V22.375Z" fill="#FCFCFC"/>
<path fill-rule="evenodd" clip-rule="evenodd" d="M12.4375 23.25H10C9.75 23.25 9.5625 23.0625 9.5625 22.8125C9.5625 22.5625 9.75 22.375 10 22.375H12.4375C12.6875 22.375 12.875 22.5625 12.875 22.8125C12.875 23.0625 12.6875 23.25 12.4375 23.25ZM14.375 23.25C14.125 23.25 13.9375 23.0625 13.9375 22.8125V20.6875C13.9375 20.4375 14.125 20.25 14.375 20.25C14.625 20.25 14.8125 20.4375 14.8125 20.6875V22.8125C14.8125 23.0625 14.625 23.25 14.375 23.25ZM8.0625 23.25C7.8125 23.25 7.625 23.0625 7.625 22.8125V20.6875C7.625 20.4375 7.8125 20.25 8.0625 20.25C8.3125 20.25 8.5 20.4375 8.5 20.6875V22.8125C8.5 23.0625 8.3125 23.25 8.0625 23.25Z" fill="#FCFCFC"/>
<path fill-rule="evenodd" clip-rule="evenodd" d="M29 27.75H2.9375C1.3125 27.75 0 26.4375 0 24.8125V8.5C0 6.875 1.3125 5.5625 2.9375 5.5625H12.25C12.5 5.5625 12.6875 5.75 12.6875 6C12.6875 6.25 12.5 6.4375 12.25 6.4375H2.9375C1.8125 6.4375 0.875 7.375 0.875 8.5V24.8125C0.875 25.9375 1.8125 26.875 2.9375 26.875H29C30.1875 26.875 31.125 25.9375 31.125 24.8125V8.5C31.125 7.375 30.1875 6.4375 29 6.4375H19.6875C19.4375 6.4375 19.25 6.25 19.25 6C19.25 5.75 19.4375 5.5625 19.6875 5.5625H29C30.625 5.5625 32 6.875 32 8.5V24.8125C32 26.4375 30.625 27.75 29 27.75Z" fill="#FCFCFC"/>
<path fill-rule="evenodd" clip-rule="evenodd" d="M27.9375 13H22.3125C22.0625 13 21.875 12.8125 21.875 12.5625C21.875 12.3125 22.0625 12.125 22.3125 12.125H27.9375C28.1875 12.125 28.375 12.3125 28.375 12.5625C28.375 12.8125 28.1875 13 27.9375 13ZM20.875 13H17.5625C17.3125 13 17.125 12.8125 17.125 12.5625C17.125 12.3125 17.3125 12.125 17.5625 12.125H20.875C21.125 12.125 21.3125 12.3125 21.3125 12.5625C21.3125 12.8125 21.125 13 20.875 13ZM27.9375 15.8125H22.3125C22.0625 15.8125 21.875 15.625 21.875 15.375C21.875 15.125 22.0625 14.9375 22.3125 14.9375H27.9375C28.1875 14.9375 28.375 15.125 28.375 15.375C28.375 15.625 28.1875 15.8125 27.9375 15.8125ZM20.875 15.8125H17.5625C17.3125 15.8125 17.125 15.625 17.125 15.375C17.125 15.125 17.3125 14.9375 17.5625 14.9375H20.875C21.125 14.9375 21.3125 15.125 21.3125 15.375C21.3125 15.625 21.125 15.8125 20.875 15.8125ZM27.9375 18.5625H22.3125C22.0625 18.5625 21.875 18.375 21.875 18.125C21.875 17.875 22.0625 17.6875 22.3125 17.6875H27.9375C28.1875 17.6875 28.375 17.875 28.375 18.125C28.375 18.375 28.1875 18.5625 27.9375 18.5625ZM20.875 18.5625H17.5625C17.3125 18.5625 17.125 18.375 17.125 18.125C17.125 17.875 17.3125 17.6875 17.5625 17.6875H20.875C21.125 17.6875 21.3125 17.875 21.3125 18.125C21.3125 18.375 21.125 18.5625 20.875 18.5625ZM19.6875 8.5625H12.25C12 8.5625 11.8125 8.375 11.8125 8.125V4.375C11.8125 4.125 12 3.9375 12.25 3.9375H19.6875C19.9375 3.9375 20.125 4.125 20.125 4.375V8.125C20.125 8.375 19.9375 8.5625 19.6875 8.5625ZM12.6875 7.6875H19.25V4.8125H12.6875V7.6875Z" fill="#FCFCFC"/>
<path fill-rule="evenodd" clip-rule="evenodd" d="M18.4375 4.8125H13.5625C13.3125 4.8125 13.125 4.625 13.125 4.375V2.5C13.125 1.25 14.125 0.25 15.375 0.25H16.5625C17.875 0.25 18.875 1.25 18.875 2.5V4.375C18.875 4.625 18.6875 4.8125 18.4375 4.8125ZM14 3.9375H18V2.5C18 1.75 17.375 1.125 16.5625 1.125H15.375C14.625 1.125 14 1.75 14 2.5V3.9375Z" fill="#FCFCFC"/>
</svg>
