<svg width="512" height="512" viewBox="0 0 512 512" fill="none" xmlns="http://www.w3.org/2000/svg">
<path d="M172.01 459.338H223.834V356.862H200.551C196.269 356.875 192.106 355.456 188.724 352.83C185.342 350.205 182.934 346.524 181.885 342.373C180.92 338.642 181.102 334.708 182.406 331.082C183.71 327.456 186.077 324.307 189.197 322.045V283.672L210.759 280.347V310.032L232.598 298.066V276.933L256.894 273.18V284.755L274.082 275.338V12.2822L172.01 55.9152V459.338ZM256.895 246.871L232.599 251.444V207.207L256.895 201.212V246.871ZM256.895 174.904L232.599 181.719V137.448L256.895 129.209V174.904ZM256.895 60.1042V102.937L232.599 111.994L232.592 70.5312L256.895 60.1042ZM189.198 89.1262L210.773 79.8782L210.766 120.142L189.197 128.141L189.198 89.1262ZM189.198 152.166L210.767 144.861V187.887L189.198 193.929V152.167V152.166ZM189.198 217.887L210.767 212.571V255.597L189.198 259.65V217.888V217.887ZM394.154 58.4802V269.705L354.157 247.791C344.706 242.613 333.809 242.613 324.358 247.791L286.082 268.763V12.2822L394.154 58.4802ZM59.5408 178.261V459.338H160.01V135.313L59.5408 178.261ZM102.46 390.843H84.9208V357.191L102.464 355.478L102.46 390.843ZM102.47 335.356L84.9208 337.759V303.979L102.47 300.374V335.356ZM102.47 280.295L84.9208 284.611V250.83L102.47 245.313V280.295ZM102.476 225.213L84.9218 231.42V199.87L102.482 192.474L102.476 225.213ZM140.632 390.843H120.421V353.715L140.632 351.739V390.843ZM140.632 330.088L120.421 332.873V296.696L140.632 292.525V330.088ZM140.632 270.873L120.421 275.852V239.653L140.632 233.266V270.873ZM140.632 211.636L120.415 218.832V184.932L140.632 176.365V211.636ZM481.458 331.222L348.393 258.315C342.534 255.105 335.986 255.105 330.126 258.315L197.06 331.222C194.11 332.838 192.677 336.139 193.512 339.398C194.346 342.657 197.189 344.863 200.553 344.863H235.836V459.338H262.813V387.93H255.319C253.727 387.93 252.201 387.298 251.076 386.173C249.951 385.048 249.319 383.522 249.319 381.93C249.319 380.339 249.951 378.813 251.076 377.688C252.201 376.562 253.727 375.93 255.319 375.93H321.914C323.505 375.93 325.031 376.562 326.156 377.688C327.282 378.813 327.914 380.339 327.914 381.93C327.914 383.522 327.282 385.048 326.156 386.173C325.031 387.298 323.505 387.93 321.914 387.93H314.42V459.338H442.684V344.863H477.966C481.331 344.863 484.173 342.657 485.007 339.398C485.841 336.139 484.409 332.838 481.458 331.222ZM320.475 306.006C320.475 295.632 328.885 287.222 339.259 287.222C349.633 287.222 358.043 295.632 358.043 306.006C358.043 316.38 349.633 324.79 339.259 324.79C328.885 324.79 320.475 316.38 320.475 306.006ZM377.252 373.881H350.798V344.864H377.252V373.881ZM415.705 373.881H389.252V344.864H415.705V373.881ZM26.7588 492.212V478.844C26.7588 474.716 30.1368 471.338 34.2648 471.338H468.719C472.847 471.338 476.225 474.716 476.225 478.844V492.212C476.225 496.34 472.847 499.718 468.719 499.718H34.2648C30.1368 499.718 26.7588 496.34 26.7588 492.212Z" fill="#BBBBBB"/>
</svg>
